<svg id="svg" version="1.1" xmlns="http://www.w3.org/2000/svg" xmlns:xlink="http://www.w3.org/1999/xlink" width="400" height="111.81657848324515" viewBox="0, 0, 400,111.81657848324515"><g id="svgg"><path id="path0" d="M54.113 20.065 C 51.068 21.199,42.825 29.294,38.828 35.076 C 37.814 36.542,38.036 36.493,35.824 35.745 C 31.656 34.335,28.753 33.841,24.616 33.836 L 21.815 33.833 21.411 34.747 C 9.171 62.423,26.890 93.000,55.167 93.000 C 85.223 93.000,102.797 61.288,88.551 32.758 C 85.085 25.817,81.390 24.654,72.399 27.675 C 71.034 28.134,69.323 28.662,68.597 28.849 L 67.278 29.188 65.521 27.302 C 59.757 21.115,56.627 19.129,54.113 20.065 M56.983 26.866 C 57.657 27.192,61.497 30.875,61.499 31.198 C 61.500 31.260,60.694 31.893,59.708 32.604 C 54.898 36.074,51.989 38.980,49.333 42.971 L 49.083 43.346 47.907 42.631 C 47.260 42.238,46.081 41.441,45.287 40.859 L 43.844 39.802 44.278 38.943 C 48.951 29.700,53.637 25.246,56.983 26.866 M78.978 32.341 C 83.692 33.106,87.138 40.498,87.821 51.306 C 89.605 79.549,57.125 97.568,35.433 80.369 C 24.749 71.898,20.529 57.055,24.591 42.232 C 25.327 39.549,25.086 39.732,27.573 39.966 C 33.955 40.568,39.594 43.212,45.228 48.243 L 45.873 48.819 45.037 50.701 C 40.323 61.316,43.023 73.143,51.167 77.551 C 57.324 80.884,66.755 78.832,71.492 73.129 C 77.641 65.727,77.958 46.973,72.129 35.511 C 71.689 34.646,71.386 33.886,71.456 33.822 C 71.768 33.538,76.400 32.335,77.750 32.187 C 77.842 32.177,78.394 32.247,78.978 32.341 M66.048 37.799 C 72.793 47.166,72.279 64.678,65.086 70.572 C 59.210 75.387,50.208 73.046,48.418 66.236 C 46.139 57.567,53.764 43.003,63.394 37.629 C 63.932 37.329,64.495 36.958,64.644 36.806 C 65.044 36.398,65.034 36.391,66.048 37.799 " stroke="none" fill="#0d1545" fill-rule="evenodd"></path><path id="path1" d="M51.333 2.102 C 50.035 2.254,48.054 2.509,47.583 2.585 C 47.308 2.630,46.821 2.709,46.500 2.760 C 46.179 2.811,45.692 2.926,45.417 3.014 C 45.142 3.102,43.979 3.393,42.833 3.661 C 40.283 4.257,36.553 5.476,35.231 6.146 C 34.691 6.419,33.837 6.803,33.333 6.999 C 32.176 7.449,29.673 8.790,28.357 9.664 C 27.803 10.032,27.305 10.333,27.251 10.333 C 27.113 10.333,24.622 11.999,24.415 12.229 C 24.322 12.332,23.985 12.598,23.665 12.819 C 18.888 16.122,12.678 23.061,10.004 28.083 C 9.614 28.817,9.162 29.567,9.001 29.750 C 8.643 30.157,7.516 32.555,6.733 34.573 C 6.415 35.392,6.090 36.142,6.009 36.240 C 5.504 36.853,4.040 42.191,3.494 45.417 C 3.291 46.608,3.064 47.733,2.988 47.917 C 2.339 49.487,2.346 61.603,2.997 63.083 C 3.078 63.267,3.192 63.792,3.250 64.250 C 3.624 67.181,5.409 73.975,6.008 74.750 C 6.079 74.842,6.453 75.704,6.840 76.667 C 7.553 78.443,8.782 81.015,8.989 81.167 C 9.116 81.260,10.349 83.419,10.537 83.878 C 10.734 84.357,11.931 86.057,12.313 86.401 C 12.508 86.575,12.667 86.785,12.667 86.867 C 12.667 88.088,21.114 96.632,24.208 98.540 C 24.643 98.808,25.056 99.121,25.125 99.234 C 25.342 99.590,26.929 100.572,31.136 102.953 C 32.206 103.558,35.928 105.167,36.259 105.167 C 36.379 105.167,36.575 105.266,36.696 105.387 C 37.249 105.940,43.128 107.572,46.417 108.087 C 47.425 108.244,48.400 108.436,48.583 108.511 C 50.156 109.161,61.980 109.122,63.833 108.461 C 63.971 108.412,64.833 108.243,65.750 108.085 C 69.310 107.472,73.294 106.388,75.250 105.500 C 75.800 105.250,77.137 104.685,78.221 104.244 C 79.304 103.803,81.142 102.883,82.304 102.199 C 83.466 101.515,84.777 100.760,85.217 100.520 C 85.658 100.280,86.370 99.800,86.801 99.454 C 87.231 99.108,88.183 98.389,88.917 97.855 C 91.137 96.239,93.584 93.978,95.948 91.361 C 97.424 89.726,99.500 87.135,99.500 86.927 C 99.500 86.877,99.861 86.387,100.303 85.839 C 100.744 85.291,101.209 84.635,101.337 84.380 C 101.729 83.597,102.899 81.588,103.015 81.500 C 103.217 81.347,104.615 78.436,105.257 76.833 C 105.606 75.962,105.940 75.212,105.998 75.167 C 106.427 74.832,108.000 69.263,108.588 66.000 C 108.828 64.671,109.094 63.321,109.181 63.000 C 109.837 60.575,109.802 47.833,109.139 47.833 C 109.063 47.833,109.000 47.656,109.000 47.439 C 109.000 45.613,106.579 36.241,106.002 35.833 C 105.937 35.787,105.652 35.150,105.370 34.417 C 104.681 32.630,103.406 29.930,103.113 29.637 C 102.983 29.507,102.557 28.804,102.165 28.075 C 101.773 27.346,101.223 26.412,100.942 26.000 C 100.110 24.778,97.585 21.419,97.238 21.071 C 97.061 20.894,96.296 20.024,95.538 19.137 C 94.779 18.251,94.089 17.501,94.005 17.471 C 93.920 17.441,93.220 16.817,92.450 16.083 C 91.110 14.809,89.755 13.687,88.504 12.819 C 88.186 12.598,87.820 12.319,87.692 12.199 C 87.372 11.901,85.039 10.333,84.916 10.333 C 84.862 10.333,84.352 10.022,83.784 9.642 C 82.504 8.786,80.054 7.479,78.833 7.001 C 78.329 6.804,77.478 6.420,76.942 6.149 C 75.634 5.487,71.893 4.264,69.333 3.663 C 68.188 3.394,67.013 3.095,66.723 2.998 C 64.691 2.321,54.532 1.730,51.333 2.102 M143.667 5.003 C 139.882 5.349,136.423 5.855,135.750 6.161 C 135.567 6.244,134.704 6.473,133.833 6.668 C 128.326 7.905,127.461 8.420,125.210 11.802 C 124.690 12.584,124.089 13.414,123.873 13.646 C 122.690 14.923,121.357 18.457,121.867 18.967 C 122.213 19.313,124.848 19.078,125.167 18.673 C 125.212 18.615,125.737 18.429,126.333 18.260 C 126.929 18.092,128.017 17.781,128.750 17.571 C 130.836 16.972,133.925 16.237,135.750 15.904 C 136.667 15.737,137.454 15.547,137.500 15.482 C 137.607 15.332,141.371 14.876,143.735 14.728 C 145.516 14.616,145.547 14.621,145.263 14.932 C 145.104 15.107,144.461 15.963,143.833 16.833 C 143.206 17.704,142.588 18.534,142.461 18.677 C 141.902 19.306,140.167 21.660,140.167 21.791 C 140.167 21.870,139.881 22.230,139.533 22.592 C 138.806 23.346,137.935 24.467,137.790 24.833 C 137.736 24.971,137.329 25.522,136.887 26.058 C 136.445 26.595,135.856 27.339,135.578 27.713 C 135.237 28.171,134.857 28.459,134.411 28.597 C 134.047 28.710,132.813 29.085,131.667 29.430 C 129.441 30.101,127.933 30.704,127.754 30.994 C 127.693 31.092,127.391 31.277,127.082 31.406 C 123.749 32.799,123.635 37.454,126.889 39.275 C 127.212 39.455,127.039 39.874,125.887 41.709 C 125.671 42.054,125.224 42.860,124.893 43.501 C 124.562 44.142,124.234 44.667,124.163 44.667 C 123.960 44.667,122.088 48.620,121.657 49.958 C 121.443 50.623,121.207 51.167,121.134 51.167 C 121.060 51.167,121.000 51.729,121.000 52.417 C 121.000 53.104,121.057 53.667,121.127 53.667 C 121.197 53.667,121.328 53.835,121.419 54.042 C 122.110 55.617,125.157 55.133,126.500 53.234 C 126.729 52.910,127.168 52.369,127.475 52.031 C 127.783 51.693,128.517 50.683,129.106 49.786 C 129.696 48.889,130.324 48.010,130.502 47.832 C 131.248 47.085,131.181 45.542,130.384 45.167 L 129.852 44.917 130.172 44.500 C 130.348 44.271,130.923 43.347,131.451 42.448 L 132.410 40.812 134.080 40.945 C 138.000 41.256,147.002 40.849,147.330 40.346 C 147.378 40.273,147.792 40.158,148.250 40.092 C 151.613 39.603,156.028 38.135,158.833 36.571 C 159.612 36.137,160.611 35.593,161.053 35.361 C 161.495 35.130,162.132 34.684,162.470 34.370 C 162.807 34.056,163.375 33.611,163.732 33.382 C 165.042 32.541,168.667 28.530,168.667 27.921 C 168.667 27.864,168.999 27.240,169.406 26.534 C 171.814 22.353,171.900 14.187,169.565 11.341 C 167.305 8.586,165.747 7.468,162.917 6.569 C 162.367 6.394,161.876 6.197,161.827 6.131 C 161.713 5.978,159.746 5.560,157.583 5.228 C 155.620 4.927,146.175 4.774,143.667 5.003 M344.557 11.430 C 343.662 11.758,341.095 14.237,340.255 15.583 C 339.912 16.133,339.461 16.771,339.253 17.000 C 339.045 17.229,338.690 17.754,338.464 18.167 C 337.581 19.780,336.574 21.597,336.385 21.915 C 336.276 22.099,335.542 23.525,334.753 25.083 C 333.965 26.642,333.185 28.094,333.019 28.312 L 332.718 28.707 332.343 28.099 C 331.856 27.312,331.226 26.999,330.133 27.004 C 329.162 27.008,326.325 27.583,326.177 27.806 C 326.125 27.884,325.521 28.141,324.833 28.378 C 322.461 29.197,319.826 30.462,319.209 31.079 C 318.994 31.293,318.561 31.591,318.246 31.741 C 316.854 32.401,313.280 35.729,312.671 36.931 C 312.290 37.684,311.823 38.205,310.501 39.355 C 309.033 40.632,306.577 42.608,306.000 42.976 C 305.771 43.123,305.545 43.295,305.497 43.360 C 304.835 44.264,302.216 45.080,301.643 44.562 C 300.984 43.965,301.877 40.732,302.932 39.899 C 303.060 39.797,303.395 39.422,303.675 39.065 C 303.956 38.709,305.019 37.533,306.037 36.453 C 307.055 35.373,308.157 34.098,308.486 33.620 C 308.814 33.141,309.187 32.641,309.313 32.508 C 309.561 32.248,309.478 30.040,309.213 29.848 C 309.139 29.794,308.909 29.214,308.702 28.559 C 308.173 26.886,307.791 26.439,306.982 26.548 C 306.274 26.643,304.000 27.640,304.000 27.855 C 304.000 27.932,303.626 28.184,303.168 28.416 C 302.315 28.848,299.318 30.770,299.167 30.981 C 299.023 31.183,297.032 32.667,296.905 32.667 C 296.738 32.667,295.296 33.845,295.043 34.188 C 294.930 34.342,294.367 34.804,293.793 35.214 C 293.219 35.624,292.400 36.325,291.972 36.772 C 291.545 37.218,290.825 37.898,290.373 38.283 C 289.920 38.668,289.186 39.455,288.740 40.033 C 287.162 42.080,285.833 42.929,285.833 41.892 C 285.833 41.487,286.986 39.961,288.224 38.729 C 291.465 35.501,292.528 34.249,293.693 32.284 C 294.916 30.222,293.881 29.331,290.269 29.335 C 288.452 29.337,287.566 29.752,286.333 31.179 C 285.829 31.762,285.060 32.608,284.625 33.058 C 284.190 33.508,283.833 33.928,283.833 33.991 C 283.833 34.055,283.421 34.734,282.917 35.500 C 282.412 36.266,282.000 36.992,282.000 37.113 C 282.000 37.234,281.935 37.333,281.854 37.333 C 281.774 37.333,281.389 38.030,280.999 38.881 L 280.289 40.428 278.439 41.670 C 277.421 42.353,276.444 43.056,276.268 43.232 C 273.514 45.986,268.715 46.115,269.318 43.419 C 269.429 42.925,269.571 42.498,269.635 42.469 C 269.777 42.404,271.000 40.547,271.000 40.395 C 271.000 40.242,272.097 38.887,272.865 38.092 C 273.214 37.730,273.500 37.380,273.500 37.313 C 273.500 37.246,273.810 36.741,274.190 36.191 C 275.279 34.613,275.263 32.865,274.152 31.930 C 273.694 31.544,273.681 31.504,273.970 31.350 C 275.357 30.607,275.692 29.575,274.917 28.433 C 274.688 28.095,274.499 27.766,274.499 27.701 C 274.492 27.024,272.112 26.282,270.321 26.399 C 268.172 26.539,264.000 27.502,264.000 27.858 C 264.000 27.936,263.878 28.000,263.729 28.000 C 262.294 28.000,252.762 32.943,252.039 34.062 C 251.972 34.166,251.597 34.468,251.207 34.732 C 250.274 35.365,248.095 37.677,247.342 38.833 C 246.543 40.061,246.219 40.429,245.333 41.113 C 244.921 41.432,243.983 42.244,243.250 42.918 C 241.274 44.734,236.643 48.816,235.215 50.000 C 234.964 50.208,235.955 48.590,236.274 48.271 C 236.472 48.074,237.023 47.276,237.500 46.498 C 237.976 45.720,238.876 44.371,239.500 43.500 C 240.124 42.629,241.022 41.283,241.496 40.509 C 241.970 39.735,242.454 39.023,242.572 38.926 C 242.803 38.737,243.833 37.247,243.833 37.103 C 243.833 37.055,244.333 36.246,244.943 35.306 C 246.559 32.816,246.890 31.909,246.790 30.250 C 246.585 26.837,244.950 26.004,242.943 28.290 C 242.680 28.589,242.369 28.833,242.250 28.833 C 242.132 28.833,241.470 29.433,240.780 30.167 C 240.090 30.900,239.457 31.500,239.374 31.500 C 239.290 31.500,238.537 32.194,237.701 33.042 C 232.949 37.861,228.649 41.563,226.500 42.685 C 225.904 42.996,225.370 43.314,225.313 43.391 C 225.257 43.469,224.710 43.671,224.099 43.841 L 222.988 44.149 223.090 43.533 C 223.409 41.611,224.305 40.373,226.846 38.345 C 229.814 35.976,234.150 30.558,234.163 29.202 C 234.172 28.290,232.640 26.402,231.557 25.990 C 230.827 25.712,227.500 27.211,227.500 27.817 C 227.500 27.904,227.391 28.000,227.258 28.029 C 225.557 28.409,220.003 34.941,218.835 37.936 C 218.554 38.659,218.256 39.400,218.174 39.583 C 218.092 39.767,217.987 40.029,217.942 40.167 C 217.878 40.360,217.857 40.351,217.846 40.125 C 217.829 39.733,217.625 39.758,217.148 40.212 C 216.543 40.787,215.209 41.833,215.079 41.833 C 214.928 41.833,213.702 42.779,213.139 43.330 C 212.540 43.915,209.599 45.738,208.667 46.101 C 208.254 46.262,207.879 46.446,207.833 46.509 C 207.691 46.706,206.028 47.000,205.052 47.000 L 204.121 47.000 204.519 46.606 C 204.738 46.389,205.350 45.935,205.879 45.598 C 208.591 43.870,211.581 39.901,211.954 37.534 C 212.008 37.194,212.134 36.863,212.234 36.798 C 212.480 36.637,212.468 32.615,212.220 32.309 C 212.120 32.185,211.984 31.746,211.918 31.333 C 211.852 30.921,211.663 29.983,211.497 29.250 C 211.331 28.517,211.144 27.467,211.081 26.917 C 210.831 24.719,210.341 24.271,208.284 24.358 C 206.134 24.449,204.744 25.774,204.410 28.051 C 204.302 28.791,204.206 28.920,203.154 29.760 C 202.528 30.260,201.956 30.775,201.883 30.904 C 201.810 31.034,201.300 31.522,200.750 31.989 C 200.200 32.456,199.150 33.399,198.417 34.085 C 194.725 37.540,194.019 38.189,193.250 38.834 C 192.792 39.219,192.035 39.919,191.568 40.392 C 190.278 41.697,189.732 42.043,188.827 42.130 L 188.019 42.207 188.843 40.360 C 190.839 35.887,190.822 31.215,188.808 30.575 C 188.488 30.474,188.498 30.440,188.985 29.964 C 189.935 29.035,189.549 27.263,188.251 26.599 C 186.585 25.747,179.377 26.636,178.333 27.822 C 178.287 27.874,177.537 28.268,176.667 28.697 C 173.558 30.230,170.277 33.028,168.665 35.524 C 165.897 39.806,166.656 47.836,170.100 50.703 C 171.964 52.254,174.779 52.578,177.833 51.593 C 179.387 51.092,181.303 50.107,181.445 49.736 C 181.495 49.606,181.621 49.500,181.726 49.500 C 181.831 49.500,182.517 48.976,183.250 48.337 L 184.583 47.175 185.614 47.171 C 186.673 47.167,188.999 46.751,189.160 46.537 C 189.450 46.150,191.020 45.693,191.111 45.969 C 192.162 49.182,195.858 52.000,199.595 52.440 C 200.093 52.498,200.500 52.611,200.500 52.690 C 200.500 52.892,203.124 52.870,203.250 52.667 C 203.307 52.575,203.517 52.499,203.718 52.498 C 204.717 52.492,209.749 50.374,210.096 49.813 C 210.153 49.720,210.951 49.149,211.869 48.544 C 212.786 47.939,213.894 47.081,214.330 46.638 C 214.765 46.196,215.188 45.830,215.269 45.826 C 215.350 45.821,215.942 45.335,216.583 44.745 L 217.750 43.673 217.885 44.458 C 217.960 44.890,218.080 45.282,218.152 45.330 C 218.225 45.378,218.410 45.800,218.564 46.268 C 219.264 48.395,221.180 50.359,222.921 50.735 C 223.427 50.844,225.500 49.991,225.500 49.675 C 225.500 49.602,226.212 49.078,227.081 48.510 C 227.951 47.942,229.020 47.145,229.456 46.739 C 229.892 46.332,230.301 46.000,230.364 46.000 C 230.427 46.000,231.139 45.462,231.947 44.804 C 232.755 44.146,233.510 43.537,233.625 43.450 C 234.021 43.150,233.840 43.604,233.266 44.348 C 232.954 44.752,232.459 45.533,232.166 46.083 C 231.523 47.291,231.246 47.763,229.912 49.917 C 229.344 50.833,228.563 52.183,228.176 52.917 C 227.789 53.650,227.362 54.374,227.226 54.525 C 226.875 54.915,225.229 57.747,224.736 58.809 C 224.508 59.300,224.214 59.810,224.082 59.942 C 223.709 60.315,223.472 61.438,223.584 62.301 C 223.747 63.558,224.022 64.667,224.170 64.667 C 224.246 64.667,224.394 64.929,224.500 65.249 C 225.083 67.015,226.446 66.607,228.675 64.000 C 229.342 63.221,230.625 61.786,231.527 60.812 C 232.429 59.837,233.167 59.005,233.167 58.963 C 233.167 58.921,233.598 58.443,234.125 57.900 C 235.922 56.050,238.415 53.290,238.797 52.728 C 239.007 52.419,239.242 52.167,239.320 52.167 C 239.398 52.167,240.014 51.523,240.689 50.737 C 241.364 49.950,242.367 48.842,242.917 48.275 C 243.467 47.707,244.353 46.737,244.887 46.119 C 245.814 45.047,246.167 44.864,246.167 45.456 C 246.167 46.678,248.851 50.341,250.421 51.261 C 251.706 52.014,254.305 51.310,255.844 49.791 C 256.099 49.539,256.851 48.964,257.515 48.512 C 258.179 48.061,259.103 47.358,259.569 46.950 C 260.035 46.543,261.400 45.420,262.602 44.456 L 264.787 42.704 264.466 43.550 C 264.289 44.015,263.993 44.700,263.809 45.073 C 262.443 47.827,262.285 51.249,263.465 52.553 C 264.537 53.739,267.753 53.771,268.917 52.607 C 269.055 52.469,269.337 52.302,269.542 52.237 C 270.003 52.090,273.354 50.046,273.583 49.771 C 273.781 49.535,275.542 48.201,276.236 47.763 C 276.503 47.594,277.028 47.147,277.402 46.770 C 277.777 46.392,278.440 45.797,278.875 45.447 L 279.667 44.811 279.667 45.712 C 279.667 50.747,283.063 53.181,286.125 50.341 C 286.423 50.064,286.667 49.779,286.667 49.707 C 286.667 49.635,287.105 49.153,287.641 48.635 C 288.178 48.117,288.884 47.291,289.211 46.798 C 289.805 45.903,292.322 43.009,293.583 41.771 C 295.510 39.879,296.353 39.120,297.368 38.360 L 298.487 37.523 297.618 38.692 C 296.396 40.338,295.398 41.917,294.844 43.083 C 294.583 43.633,294.155 44.533,293.893 45.083 C 292.671 47.649,293.287 50.901,295.267 52.333 C 296.110 52.944,298.489 53.209,298.801 52.728 C 298.864 52.630,299.307 52.421,299.783 52.264 C 300.835 51.918,303.336 50.378,304.250 49.513 C 304.617 49.167,305.367 48.515,305.917 48.064 C 306.467 47.614,307.827 46.341,308.940 45.236 L 310.963 43.226 311.066 43.988 C 311.224 45.153,311.809 46.767,312.566 48.126 C 312.942 48.802,313.348 49.538,313.468 49.761 C 314.417 51.534,317.350 51.379,319.744 49.429 C 320.270 49.000,321.006 48.457,321.378 48.222 C 321.750 47.987,322.403 47.447,322.830 47.022 C 323.257 46.598,323.938 45.977,324.345 45.644 C 324.751 45.311,325.563 44.569,326.149 43.995 C 327.117 43.047,327.204 42.996,327.100 43.434 C 326.416 46.320,326.907 50.096,328.134 51.390 C 329.418 52.743,332.249 52.660,334.909 51.190 C 336.706 50.198,337.089 49.967,337.250 49.779 C 337.480 49.509,338.810 48.472,339.417 48.089 C 339.692 47.915,340.457 47.243,341.117 46.595 C 341.778 45.947,342.659 45.126,343.076 44.770 L 343.833 44.123 343.836 44.853 C 343.851 48.577,346.171 51.496,349.119 51.499 C 351.329 51.501,352.727 50.570,357.073 46.201 L 359.608 43.652 359.122 45.105 C 356.935 51.645,360.629 55.398,366.294 52.390 C 368.929 50.991,370.897 49.471,374.676 45.917 C 378.030 42.762,378.230 42.501,378.100 41.451 C 377.767 38.766,377.789 38.788,376.610 39.917 C 376.180 40.329,375.787 40.667,375.737 40.667 C 375.688 40.667,375.070 41.105,374.365 41.640 C 373.660 42.176,372.896 42.712,372.667 42.831 C 372.438 42.951,372.077 43.220,371.865 43.429 C 370.927 44.353,367.786 45.582,366.845 45.394 C 365.630 45.151,365.582 42.728,366.768 41.542 C 366.902 41.408,367.167 40.988,367.357 40.608 C 368.012 39.303,369.574 37.413,372.338 34.583 C 375.567 31.277,375.647 31.123,375.329 28.803 C 374.858 25.363,373.561 25.133,370.417 27.930 C 370.050 28.256,369.404 28.799,368.981 29.136 C 368.271 29.702,362.844 34.604,359.212 37.960 C 358.366 38.742,357.416 39.556,357.102 39.770 C 356.788 39.983,356.505 40.217,356.474 40.290 C 356.361 40.551,354.894 41.618,353.667 42.333 C 352.979 42.733,352.267 43.188,352.083 43.344 C 351.610 43.749,349.732 44.394,349.400 44.267 C 348.924 44.084,349.175 42.226,349.856 40.893 C 350.441 39.749,350.781 39.403,352.527 38.172 C 353.108 37.762,353.771 37.256,354.000 37.047 C 356.179 35.060,356.833 34.421,356.833 34.280 C 356.833 34.189,357.419 33.571,358.136 32.905 C 361.442 29.833,361.239 27.667,357.645 27.667 C 356.934 27.667,356.307 27.742,356.250 27.833 C 356.193 27.925,355.774 28.000,355.318 28.000 C 353.777 28.000,351.560 29.428,349.690 31.627 C 349.086 32.336,348.459 33.029,348.297 33.167 C 347.910 33.496,346.787 35.309,346.130 36.667 C 345.842 37.262,345.548 37.790,345.476 37.839 C 345.405 37.888,345.224 38.226,345.076 38.589 C 344.781 39.309,343.856 40.260,342.641 41.092 C 341.674 41.754,339.806 43.177,339.583 43.421 C 338.920 44.150,335.146 46.167,334.447 46.167 C 334.322 46.167,333.964 45.886,333.652 45.542 L 333.083 44.917 333.083 43.151 C 333.083 42.106,333.159 41.289,333.269 41.151 C 333.371 41.022,333.507 40.692,333.571 40.417 C 333.892 39.052,335.815 34.916,336.323 34.500 C 336.458 34.390,338.352 31.376,338.652 30.794 C 338.781 30.544,339.009 30.206,339.159 30.044 C 339.522 29.651,340.500 28.219,340.500 28.080 C 340.500 28.020,341.359 26.669,342.408 25.079 C 343.458 23.488,344.468 21.889,344.654 21.525 C 344.840 21.161,345.212 20.622,345.480 20.328 C 346.280 19.452,347.830 16.195,348.045 14.936 C 348.521 12.161,346.927 10.559,344.557 11.430 M153.333 14.252 C 156.241 14.445,160.847 15.214,160.972 15.528 C 161.003 15.604,161.132 15.667,161.260 15.667 C 162.266 15.667,165.179 17.239,165.673 18.048 C 166.786 19.874,164.755 23.848,161.250 26.705 C 160.700 27.153,160.100 27.652,159.917 27.813 C 155.760 31.464,146.060 33.964,140.333 32.858 C 138.461 32.497,138.470 32.510,139.363 31.421 C 139.441 31.327,139.652 31.052,139.833 30.810 C 140.177 30.350,140.304 30.311,144.141 29.480 C 146.155 29.044,146.667 28.726,146.667 27.908 C 146.667 27.161,146.372 27.092,143.823 27.244 C 142.728 27.309,141.833 27.325,141.833 27.278 C 141.833 27.232,142.177 26.794,142.597 26.305 C 143.017 25.817,143.475 25.199,143.614 24.934 C 143.753 24.668,144.291 23.888,144.809 23.200 C 146.389 21.100,148.000 18.822,148.000 18.689 C 148.000 18.619,148.213 18.358,148.473 18.109 C 149.143 17.467,149.661 16.344,149.871 15.078 L 150.051 13.989 150.984 14.074 C 151.497 14.120,152.554 14.201,153.333 14.252 M57.778 20.335 C 59.365 21.116,61.815 23.163,64.093 25.611 C 65.188 26.787,66.352 28.027,66.680 28.367 L 67.278 28.983 68.347 28.740 C 68.935 28.607,70.654 28.088,72.167 27.588 C 82.168 24.280,86.034 25.897,89.777 34.954 C 101.571 63.494,85.174 92.121,56.464 93.116 C 28.068 94.100,9.517 64.630,20.670 36.255 C 21.822 33.324,21.315 33.600,25.332 33.720 C 29.308 33.838,32.151 34.331,35.761 35.530 C 37.516 36.112,37.891 36.189,38.004 35.990 C 40.540 31.520,51.294 20.743,54.140 19.819 C 55.014 19.536,56.616 19.763,57.778 20.335 M53.491 27.116 C 51.264 28.220,47.203 33.455,44.677 38.479 L 44.016 39.795 45.799 41.040 C 47.839 42.464,49.012 43.215,49.075 43.137 C 49.098 43.107,49.379 42.669,49.699 42.163 C 51.631 39.105,55.674 35.224,60.292 31.996 C 61.580 31.095,61.682 31.410,59.364 29.120 C 56.705 26.494,55.545 26.099,53.491 27.116 M75.083 32.910 C 70.966 33.991,71.347 33.796,71.813 34.586 C 76.988 43.358,78.016 61.364,73.817 69.702 C 68.622 80.016,54.840 82.717,47.480 74.864 C 42.085 69.107,40.953 59.044,44.791 50.959 C 45.882 48.659,46.010 49.040,43.457 46.983 C 37.971 42.565,31.057 39.759,26.330 40.032 L 25.445 40.083 24.975 41.486 C 17.489 63.803,32.388 86.705,54.417 86.743 C 78.105 86.784,93.433 64.227,85.726 40.667 C 83.448 33.700,80.436 31.505,75.083 32.910 M204.928 36.155 C 205.520 40.350,204.801 42.066,201.500 44.329 L 200.250 45.185 199.464 44.301 C 199.031 43.815,198.675 43.342,198.672 43.250 C 198.660 42.866,197.177 41.902,196.115 41.587 L 195.480 41.399 196.698 40.223 C 197.896 39.067,198.947 38.074,202.579 34.664 L 204.409 32.946 204.515 33.462 C 204.573 33.746,204.759 34.958,204.928 36.155 M329.773 34.226 C 329.245 35.128,327.714 36.942,326.583 38.009 C 324.949 39.550,322.402 41.691,321.500 42.282 C 320.996 42.612,320.358 43.090,320.083 43.344 C 318.278 45.013,317.233 44.907,317.278 43.059 C 317.361 39.660,319.735 37.358,325.417 35.166 C 326.425 34.777,327.475 34.357,327.750 34.232 C 328.481 33.900,330.073 33.368,330.145 33.431 C 330.179 33.461,330.012 33.819,329.773 34.226 M267.901 33.875 C 267.419 34.446,264.494 37.317,263.833 37.867 C 263.512 38.135,262.688 38.903,262.000 39.574 C 258.706 42.789,254.953 45.571,253.167 46.124 C 252.662 46.280,252.207 46.468,252.154 46.542 C 252.003 46.752,251.192 45.910,251.068 45.413 C 250.958 44.976,251.267 43.167,251.480 43.000 C 251.539 42.954,251.786 42.609,252.029 42.233 C 252.532 41.458,254.301 39.500,254.500 39.500 C 254.572 39.500,255.283 39.090,256.081 38.590 C 256.878 38.089,257.681 37.632,257.866 37.573 C 258.050 37.515,258.458 37.293,258.771 37.080 C 259.415 36.643,261.183 35.931,263.991 34.978 C 265.040 34.622,265.940 34.263,265.991 34.181 C 266.067 34.058,267.510 33.599,268.067 33.521 C 268.150 33.510,268.076 33.669,267.901 33.875 M180.929 35.508 C 179.293 38.687,178.786 41.659,179.539 43.659 C 179.875 44.554,179.863 44.572,178.265 45.631 C 177.615 46.062,177.046 46.459,177.000 46.513 C 176.305 47.338,173.580 47.082,172.680 46.106 C 172.053 45.426,172.037 42.566,172.659 42.169 C 172.732 42.122,173.060 41.517,173.388 40.825 C 173.827 39.898,174.243 39.327,174.968 38.658 C 176.822 36.946,177.444 36.504,179.875 35.172 C 180.769 34.682,181.500 34.205,181.500 34.113 C 181.500 34.020,181.535 33.979,181.577 34.022 C 181.620 34.064,181.328 34.733,180.929 35.508 M63.453 37.732 C 50.777 45.690,43.986 63.190,50.901 70.079 C 55.851 75.012,64.216 73.484,67.767 66.999 C 72.281 58.758,71.414 45.182,65.907 37.855 C 64.982 36.626,65.197 36.637,63.453 37.732 M199.917 73.392 C 199.251 73.697,198.942 74.084,198.564 75.083 C 198.167 76.135,198.083 93.829,198.464 96.250 C 199.228 101.115,201.740 104.201,205.750 105.203 C 206.208 105.317,206.623 105.465,206.672 105.532 C 207.183 106.227,217.000 106.200,217.000 105.503 C 217.000 105.430,217.244 105.324,217.542 105.267 C 220.812 104.643,223.959 101.194,224.781 97.333 C 225.229 95.235,225.245 75.711,224.800 74.900 C 223.564 72.643,220.009 72.460,218.917 74.598 C 218.597 75.223,218.580 75.667,218.500 85.167 C 218.439 92.411,218.363 95.173,218.218 95.417 C 218.109 95.600,217.889 96.192,217.729 96.732 C 216.250 101.741,208.254 102.168,205.689 97.376 C 205.165 96.396,205.111 95.445,205.014 85.583 L 204.917 75.583 204.500 74.759 C 203.769 73.313,201.541 72.648,199.917 73.392 M233.250 73.390 C 231.535 74.182,231.583 73.720,231.583 89.328 C 231.583 105.294,231.495 104.645,233.750 105.176 C 234.208 105.284,234.714 105.439,234.873 105.520 C 235.286 105.730,251.620 105.711,251.750 105.500 C 251.807 105.408,252.006 105.333,252.193 105.333 C 254.401 105.333,255.195 101.827,253.294 100.471 L 252.750 100.083 245.548 100.035 L 238.346 99.987 238.298 87.785 L 238.250 75.583 237.833 74.765 C 237.102 73.328,234.848 72.652,233.250 73.390 M260.590 73.288 C 259.934 73.455,259.444 73.922,259.061 74.743 L 258.670 75.583 258.668 89.547 C 258.667 101.787,258.699 103.587,258.925 104.130 C 260.012 106.736,263.554 106.806,264.973 104.250 C 265.378 103.519,265.488 76.784,265.091 75.418 C 264.542 73.531,262.829 72.720,260.590 73.288 M169.058 73.908 C 167.205 74.714,167.140 78.159,168.962 78.960 C 169.465 79.181,170.350 79.246,173.618 79.300 L 177.652 79.367 177.701 91.392 C 177.756 104.845,177.694 104.166,178.957 105.294 C 180.197 106.402,182.389 106.404,183.366 105.297 C 184.474 104.042,184.412 104.820,184.464 91.473 L 184.512 79.363 188.548 79.307 C 193.658 79.235,194.389 78.975,194.736 77.105 C 194.996 75.706,194.275 74.286,193.071 73.829 C 192.346 73.553,169.702 73.628,169.058 73.908 M274.109 73.903 C 273.756 74.033,273.370 74.276,273.251 74.444 C 273.132 74.612,272.874 74.933,272.679 75.156 C 272.089 75.830,272.083 75.967,272.083 89.750 C 272.083 104.613,272.042 103.998,273.107 105.063 C 275.116 107.072,278.667 105.924,278.667 103.266 C 278.667 103.039,278.742 102.807,278.833 102.750 C 278.938 102.685,279.000 100.921,279.000 98.008 L 279.000 93.369 283.375 93.304 C 286.098 93.264,287.876 93.170,288.083 93.057 C 288.267 92.957,288.979 92.745,289.667 92.585 C 293.921 91.598,296.170 88.777,296.444 84.083 C 296.745 78.911,294.473 75.411,289.917 74.031 C 288.704 73.664,275.063 73.554,274.109 73.903 M285.657 79.010 C 288.444 79.462,289.586 80.769,289.580 83.500 C 289.573 86.864,287.866 87.920,282.125 88.113 L 279.000 88.219 279.000 83.526 L 279.000 78.833 281.792 78.835 C 283.327 78.835,285.066 78.914,285.657 79.010 " stroke="none" fill="#f7f7f7" fill-rule="evenodd"></path><path id="path2" d="M62.583 24.167 C 63.220 24.808,63.779 25.333,63.824 25.333 C 63.870 25.333,63.387 24.808,62.750 24.167 C 62.113 23.525,61.555 23.000,61.509 23.000 C 61.463 23.000,61.947 23.525,62.583 24.167 M45.917 26.500 C 44.820 27.600,43.959 28.500,44.005 28.500 C 44.051 28.500,44.986 27.600,46.083 26.500 C 47.180 25.400,48.041 24.500,47.995 24.500 C 47.949 24.500,47.014 25.400,45.917 26.500 M55.042 26.615 C 55.202 26.657,55.465 26.657,55.625 26.615 C 55.785 26.573,55.654 26.539,55.333 26.539 C 55.012 26.539,54.881 26.573,55.042 26.615 M58.833 28.583 C 59.424 29.179,59.945 29.667,59.990 29.667 C 60.036 29.667,59.591 29.179,59.000 28.583 C 58.409 27.988,57.889 27.500,57.843 27.500 C 57.797 27.500,58.243 27.988,58.833 28.583 M77.461 32.454 C 77.761 32.491,78.211 32.490,78.461 32.452 C 78.712 32.414,78.467 32.384,77.917 32.385 C 77.367 32.386,77.162 32.417,77.461 32.454 M54.500 36.583 C 54.095 36.996,53.801 37.333,53.847 37.333 C 53.893 37.333,54.262 36.996,54.667 36.583 C 55.072 36.171,55.365 35.833,55.319 35.833 C 55.274 35.833,54.905 36.171,54.500 36.583 M57.744 42.208 L 56.917 43.083 57.792 42.256 C 58.605 41.488,58.743 41.333,58.619 41.333 C 58.592 41.333,58.199 41.727,57.744 42.208 M45.348 48.603 C 45.569 48.889,45.784 49.093,45.824 49.056 C 45.865 49.020,45.684 48.786,45.422 48.537 L 44.945 48.083 45.348 48.603 M17.539 49.667 C 17.539 49.987,17.573 50.119,17.615 49.958 C 17.657 49.798,17.657 49.535,17.615 49.375 C 17.573 49.215,17.539 49.346,17.539 49.667 M93.552 51.750 C 93.553 52.300,93.584 52.505,93.621 52.205 C 93.658 51.906,93.657 51.456,93.619 51.205 C 93.581 50.955,93.551 51.200,93.552 51.750 M17.396 53.333 C 17.396 54.387,17.423 54.819,17.456 54.292 C 17.490 53.765,17.490 52.902,17.456 52.375 C 17.423 51.848,17.396 52.279,17.396 53.333 M23.060 53.333 C 23.060 54.204,23.088 54.560,23.123 54.125 C 23.157 53.690,23.157 52.977,23.123 52.542 C 23.088 52.106,23.060 52.462,23.060 53.333 M76.403 55.500 C 76.403 57.196,76.427 57.890,76.458 57.042 C 76.488 56.194,76.488 54.806,76.458 53.958 C 76.427 53.110,76.403 53.804,76.403 55.500 M70.721 54.417 C 70.722 55.058,70.752 55.300,70.788 54.955 C 70.824 54.609,70.824 54.084,70.787 53.788 C 70.750 53.492,70.721 53.775,70.721 54.417 M93.552 55.083 C 93.553 55.633,93.584 55.838,93.621 55.539 C 93.658 55.239,93.657 54.789,93.619 54.539 C 93.581 54.288,93.551 54.533,93.552 55.083 M17.539 57.167 C 17.539 57.487,17.573 57.619,17.615 57.458 C 17.657 57.298,17.657 57.035,17.615 56.875 C 17.573 56.715,17.539 56.846,17.539 57.167 M42.562 61.167 C 42.562 62.129,42.589 62.523,42.623 62.042 C 42.657 61.560,42.657 60.773,42.623 60.292 C 42.589 59.810,42.562 60.204,42.562 61.167 M65.577 69.875 L 64.750 70.750 65.625 69.923 C 66.106 69.468,66.500 69.074,66.500 69.048 C 66.500 68.924,66.346 69.062,65.577 69.875 M57.625 73.118 C 57.831 73.157,58.169 73.157,58.375 73.118 C 58.581 73.078,58.413 73.045,58.000 73.045 C 57.587 73.045,57.419 73.078,57.625 73.118 M47.167 74.583 C 47.478 74.904,47.770 75.167,47.815 75.167 C 47.861 75.167,47.644 74.904,47.333 74.583 C 47.022 74.262,46.730 74.000,46.685 74.000 C 46.639 74.000,46.856 74.262,47.167 74.583 M32.167 77.250 C 32.478 77.571,32.770 77.833,32.815 77.833 C 32.861 77.833,32.644 77.571,32.333 77.250 C 32.022 76.929,31.730 76.667,31.685 76.667 C 31.639 76.667,31.856 76.929,32.167 77.250 M33.833 78.917 C 34.144 79.237,34.436 79.500,34.482 79.500 C 34.528 79.500,34.311 79.237,34.000 78.917 C 33.689 78.596,33.397 78.333,33.351 78.333 C 33.305 78.333,33.522 78.596,33.833 78.917 M82.329 82.125 L 81.250 83.250 82.375 82.171 C 82.994 81.578,83.500 81.072,83.500 81.046 C 83.500 80.924,83.330 81.080,82.329 82.125 M28.917 82.333 C 29.275 82.700,29.605 83.000,29.651 83.000 C 29.697 83.000,29.441 82.700,29.083 82.333 C 28.725 81.967,28.395 81.667,28.349 81.667 C 28.303 81.667,28.559 81.967,28.917 82.333 M53.375 86.957 C 53.994 86.989,55.006 86.989,55.625 86.957 C 56.244 86.925,55.737 86.899,54.500 86.899 C 53.262 86.899,52.756 86.925,53.375 86.957 M52.542 93.115 C 52.702 93.157,52.965 93.157,53.125 93.115 C 53.285 93.073,53.154 93.039,52.833 93.039 C 52.512 93.039,52.381 93.073,52.542 93.115 M57.294 93.118 C 57.501 93.158,57.801 93.156,57.960 93.115 C 58.120 93.073,57.950 93.040,57.583 93.042 C 57.217 93.044,57.086 93.078,57.294 93.118 " stroke="none" fill="#9c9db0" fill-rule="evenodd"></path><path id="path3" d="M53.158 37.958 L 52.583 38.583 53.208 38.009 C 53.790 37.474,53.910 37.333,53.783 37.333 C 53.755 37.333,53.474 37.615,53.158 37.958 " stroke="none" fill="#83859c" fill-rule="evenodd"></path><path id="path4" d="M61.750 23.500 C 62.201 23.958,62.608 24.333,62.654 24.333 C 62.700 24.333,62.368 23.958,61.917 23.500 C 61.465 23.042,61.058 22.667,61.013 22.667 C 60.967 22.667,61.299 23.042,61.750 23.500 M63.667 25.385 C 63.667 25.414,63.910 25.658,64.208 25.927 L 64.750 26.417 64.260 25.875 C 63.804 25.370,63.667 25.257,63.667 25.385 M79.129 26.122 C 79.521 26.157,80.121 26.157,80.463 26.121 C 80.804 26.085,80.483 26.057,79.750 26.057 C 79.017 26.058,78.737 26.087,79.129 26.122 M85.000 27.719 C 85.000 27.748,85.244 27.991,85.542 28.260 L 86.083 28.750 85.594 28.208 C 85.138 27.703,85.000 27.590,85.000 27.719 M58.333 27.885 C 58.333 27.914,58.577 28.158,58.875 28.427 L 59.417 28.917 58.927 28.375 C 58.471 27.870,58.333 27.757,58.333 27.885 M44.073 28.542 L 43.583 29.083 44.125 28.594 C 44.630 28.138,44.743 28.000,44.615 28.000 C 44.586 28.000,44.342 28.244,44.073 28.542 M66.658 28.542 C 66.974 28.885,67.349 29.161,67.491 29.154 C 67.715 29.142,67.716 29.128,67.500 29.050 C 67.362 29.000,66.987 28.725,66.667 28.438 L 66.083 27.917 66.658 28.542 M50.491 29.458 L 49.917 30.083 50.542 29.509 C 50.885 29.193,51.167 28.912,51.167 28.884 C 51.167 28.757,51.026 28.877,50.491 29.458 M60.333 30.052 C 60.333 30.081,60.577 30.325,60.875 30.594 L 61.417 31.083 60.927 30.542 C 60.471 30.037,60.333 29.923,60.333 30.052 M23.548 33.790 C 24.078 33.823,24.903 33.823,25.381 33.789 C 25.859 33.756,25.425 33.729,24.417 33.729 C 23.408 33.729,23.017 33.757,23.548 33.790 M23.042 50.750 C 23.044 51.117,23.078 51.247,23.118 51.040 C 23.158 50.832,23.156 50.532,23.115 50.373 C 23.073 50.214,23.040 50.383,23.042 50.750 M17.539 50.833 C 17.539 51.154,17.573 51.285,17.615 51.125 C 17.657 50.965,17.657 50.702,17.615 50.542 C 17.573 50.381,17.539 50.512,17.539 50.833 M70.714 52.417 C 70.716 52.875,70.748 53.043,70.786 52.789 C 70.825 52.536,70.824 52.161,70.784 51.956 C 70.744 51.751,70.713 51.958,70.714 52.417 M93.545 53.333 C 93.545 53.746,93.578 53.915,93.618 53.708 C 93.657 53.502,93.657 53.165,93.618 52.958 C 93.578 52.752,93.545 52.921,93.545 53.333 M87.883 53.833 C 87.883 54.337,87.915 54.544,87.953 54.292 C 87.991 54.040,87.991 53.627,87.953 53.375 C 87.915 53.123,87.883 53.329,87.883 53.833 M17.539 55.833 C 17.539 56.154,17.573 56.285,17.615 56.125 C 17.657 55.965,17.657 55.702,17.615 55.542 C 17.573 55.381,17.539 55.512,17.539 55.833 M23.042 55.917 C 23.044 56.283,23.078 56.414,23.118 56.206 C 23.158 55.999,23.156 55.699,23.115 55.540 C 23.073 55.380,23.040 55.550,23.042 55.917 M70.714 56.417 C 70.716 56.875,70.748 57.043,70.786 56.789 C 70.825 56.536,70.824 56.161,70.784 55.956 C 70.744 55.751,70.713 55.958,70.714 56.417 M48.061 62.583 C 48.061 63.500,48.089 63.854,48.123 63.369 C 48.157 62.885,48.156 62.135,48.122 61.703 C 48.088 61.270,48.060 61.667,48.061 62.583 M65.573 70.042 L 65.083 70.583 65.625 70.094 C 66.130 69.638,66.243 69.500,66.115 69.500 C 66.086 69.500,65.842 69.744,65.573 70.042 M79.158 75.958 L 78.583 76.583 79.208 76.009 C 79.552 75.693,79.833 75.412,79.833 75.384 C 79.833 75.257,79.692 75.377,79.158 75.958 M77.158 77.958 L 76.583 78.583 77.208 78.009 C 77.552 77.693,77.833 77.412,77.833 77.384 C 77.833 77.257,77.692 77.377,77.158 77.958 M33.167 78.417 C 33.478 78.737,33.770 79.000,33.815 79.000 C 33.861 79.000,33.644 78.737,33.333 78.417 C 33.022 78.096,32.730 77.833,32.685 77.833 C 32.639 77.833,32.856 78.096,33.167 78.417 M57.380 79.289 C 57.818 79.324,58.493 79.323,58.880 79.288 C 59.267 79.254,58.908 79.225,58.083 79.226 C 57.258 79.226,56.942 79.255,57.380 79.289 M82.163 82.125 L 80.583 83.750 82.208 82.170 C 83.718 80.702,83.909 80.500,83.788 80.500 C 83.764 80.500,83.032 81.231,82.163 82.125 M29.083 82.333 C 29.905 83.158,30.614 83.833,30.660 83.833 C 30.706 83.833,30.071 83.158,29.250 82.333 C 28.429 81.508,27.719 80.833,27.674 80.833 C 27.628 80.833,28.262 81.508,29.083 82.333 M54.381 93.123 C 54.912 93.157,55.737 93.156,56.214 93.123 C 56.692 93.089,56.258 93.062,55.250 93.062 C 54.242 93.063,53.851 93.090,54.381 93.123 " stroke="none" fill="#7c7c94" fill-rule="evenodd"></path></g></svg>