<svg id="svg" version="1.1" xmlns="http://www.w3.org/2000/svg" xmlns:xlink="http://www.w3.org/1999/xlink" width="400" height="396.8701095461659" viewBox="0, 0, 400,396.8701095461659"><g id="svgg"><path id="path0" d="M192.254 71.205 C 187.753 72.559,174.199 83.597,163.257 94.818 C 150.845 107.547,144.769 114.852,134.924 128.881 C 134.389 129.643,134.297 129.630,130.446 128.225 C 114.255 122.318,97.303 119.466,82.700 120.193 L 77.416 120.456 76.662 122.095 C 76.247 122.996,75.358 125.164,74.685 126.912 C 74.012 128.659,73.303 130.447,73.109 130.884 C 72.747 131.699,71.185 136.374,69.393 142.006 C 68.519 144.755,66.885 151.286,65.568 157.299 C 60.017 182.654,61.630 212.558,69.896 237.514 C 71.773 243.182,72.094 244.052,73.496 247.269 C 73.877 248.143,74.674 250.020,75.268 251.440 C 87.501 280.707,115.812 309.122,144.410 320.837 C 150.503 323.333,159.061 326.202,163.059 327.089 C 163.714 327.235,165.412 327.615,166.832 327.935 C 233.856 343.014,301.716 305.190,323.672 240.516 C 325.972 233.739,326.751 230.907,328.528 222.840 C 330.603 213.422,331.376 205.506,331.561 191.779 C 331.749 177.806,330.975 168.370,328.913 159.484 C 328.711 158.610,328.249 156.554,327.887 154.916 C 326.053 146.612,321.051 130.878,318.294 124.745 C 310.546 107.503,303.620 98.307,295.902 95.012 C 289.442 92.254,277.957 92.298,267.622 95.119 C 263.658 96.201,262.328 96.615,254.816 99.108 C 246.845 101.754,243.860 102.632,241.382 103.061 C 240.547 103.205,239.622 103.417,239.326 103.530 C 238.700 103.770,238.305 103.392,231.177 95.730 C 211.767 74.866,201.528 68.414,192.254 71.205 M202.722 95.881 C 205.303 97.324,207.683 99.511,214.598 106.792 C 219.272 111.713,219.318 110.825,214.197 114.393 C 207.958 118.740,203.510 122.163,197.427 127.298 C 190.574 133.082,181.607 143.111,176.946 150.202 C 174.519 153.894,174.304 154.110,173.475 153.682 C 171.076 152.445,167.423 150.101,163.654 147.379 C 161.360 145.723,158.833 143.968,158.039 143.480 C 155.377 141.845,155.370 141.976,158.409 136.167 C 175.502 103.494,191.053 89.355,202.722 95.881 M283.662 115.754 C 298.314 120.242,310.097 148.673,311.815 183.682 C 313.304 214.028,305.706 239.076,288.008 262.165 C 279.170 273.696,264.863 286.397,253.426 292.866 C 249.272 295.215,245.877 297.050,244.290 297.803 C 240.113 299.785,236.265 301.490,235.970 301.490 C 235.795 301.490,234.818 301.859,233.798 302.310 C 229.730 304.109,218.466 307.134,211.718 308.239 C 160.816 316.577,111.150 288.253,91.572 239.722 C 90.778 237.756,89.968 235.789,89.770 235.353 C 82.350 218.932,79.542 188.432,83.444 166.634 C 85.260 156.493,89.304 141.962,90.431 141.529 C 91.071 141.284,97.655 141.920,104.270 142.867 C 110.411 143.747,119.879 146.272,124.131 148.164 C 124.568 148.358,125.909 148.919,127.110 149.411 C 128.312 149.902,130.636 151.012,132.274 151.877 C 133.913 152.742,135.789 153.720,136.445 154.051 C 141.285 156.496,153.950 165.786,161.057 172.104 L 163.028 173.856 160.993 177.991 C 159.874 180.265,158.569 183.108,158.094 184.310 C 157.619 185.511,157.096 186.763,156.932 187.090 C 156.767 187.418,156.319 188.759,155.937 190.070 C 155.554 191.380,155.014 193.168,154.736 194.042 C 154.189 195.761,153.760 197.639,152.652 203.178 C 151.732 207.773,151.617 226.048,152.478 230.785 C 154.059 239.483,155.478 243.981,158.981 251.399 C 175.070 285.469,217.254 292.171,248.463 265.616 C 254.072 260.843,260.226 251.929,262.775 244.886 C 263.170 243.793,263.616 242.721,263.766 242.502 C 264.275 241.762,266.960 232.579,267.889 228.401 C 274.032 200.772,270.044 157.098,259.201 133.267 C 258.704 132.175,257.877 130.298,257.364 129.096 C 256.850 127.895,255.647 125.492,254.690 123.757 C 252.888 120.489,252.938 119.563,254.917 119.563 C 255.216 119.563,256.299 119.312,257.324 119.006 C 265.545 116.545,269.648 115.485,272.691 115.037 C 274.822 114.723,281.780 115.178,283.662 115.754 M232.502 131.877 C 239.950 141.320,245.630 153.678,248.478 166.634 C 257.698 208.574,245.024 248.450,219.464 257.926 C 201.733 264.499,181.384 256.806,173.661 240.610 C 168.041 228.823,169.971 206.702,178.225 188.282 C 188.457 165.452,210.155 140.851,227.805 132.071 C 228.679 131.637,229.634 130.959,229.928 130.565 C 230.618 129.639,230.816 129.740,232.502 131.877 " stroke="none" fill="#0d1545" fill-rule="evenodd"></path><path id="path1" d="M184.147 7.489 C 184.032 7.675,181.499 7.954,178.519 8.109 C 175.539 8.263,172.807 8.541,172.449 8.725 C 171.880 9.018,169.334 9.414,162.959 10.200 C 162.031 10.314,161.271 10.545,161.271 10.714 C 161.271 10.882,160.020 11.143,158.491 11.293 C 156.961 11.444,155.710 11.711,155.710 11.886 C 155.710 12.061,154.694 12.324,153.452 12.470 C 152.210 12.616,151.004 12.886,150.771 13.070 C 150.538 13.255,149.811 13.506,149.156 13.628 C 146.854 14.057,143.990 14.856,143.793 15.124 C 143.684 15.273,142.836 15.521,141.909 15.676 C 140.981 15.831,140.128 16.111,140.013 16.298 C 139.897 16.484,139.003 16.757,138.025 16.904 C 137.046 17.051,136.246 17.329,136.246 17.523 C 136.246 17.716,135.814 17.875,135.286 17.875 C 134.758 17.875,134.267 18.009,134.194 18.173 C 134.121 18.337,132.810 18.890,131.281 19.403 C 128.331 20.391,126.162 21.246,125.030 21.866 C 124.651 22.074,124.070 22.244,123.739 22.244 C 123.409 22.244,123.138 22.409,123.138 22.610 C 123.138 22.811,122.602 23.093,121.946 23.237 C 121.291 23.381,120.755 23.649,120.755 23.833 C 120.755 24.017,120.226 24.283,119.579 24.425 C 118.933 24.567,117.504 25.118,116.404 25.649 C 115.303 26.179,114.238 26.614,114.037 26.614 C 113.836 26.614,113.611 26.748,113.539 26.912 C 113.466 27.075,112.200 27.814,110.725 28.552 C 109.250 29.290,108.044 30.035,108.044 30.208 C 108.044 30.381,107.507 30.641,106.852 30.785 C 106.197 30.928,105.660 31.211,105.660 31.412 C 105.660 31.613,105.452 31.778,105.197 31.778 C 104.942 31.778,103.443 32.582,101.866 33.565 C 100.289 34.548,98.799 35.353,98.556 35.353 C 98.312 35.353,98.113 35.528,98.113 35.742 C 98.113 35.956,97.679 36.241,97.149 36.374 C 96.619 36.507,96.088 36.868,95.970 37.176 C 95.852 37.484,95.562 37.736,95.326 37.736 C 94.968 37.736,90.417 40.665,89.772 41.311 C 89.662 41.420,89.278 41.688,88.917 41.907 C 85.934 43.714,83.415 45.599,83.211 46.177 C 83.076 46.559,82.708 46.872,82.392 46.872 C 82.077 46.872,81.513 47.229,81.139 47.666 C 80.765 48.103,80.231 48.461,79.951 48.461 C 79.672 48.461,79.444 48.627,79.444 48.831 C 79.444 49.035,79.096 49.312,78.670 49.447 C 78.244 49.583,77.788 50.032,77.656 50.447 C 77.525 50.861,77.029 51.324,76.554 51.475 C 76.079 51.625,74.740 52.707,73.578 53.878 C 72.416 55.050,71.328 56.008,71.160 56.008 C 70.914 56.008,67.946 58.867,64.055 62.852 C 61.855 65.104,60.007 66.952,59.086 67.820 C 58.486 68.387,57.994 69.003,57.994 69.191 C 57.994 69.378,57.011 70.483,55.809 71.647 C 54.608 72.811,53.625 73.946,53.625 74.169 C 53.625 74.392,52.910 75.268,52.036 76.115 C 51.162 76.963,50.447 77.815,50.447 78.008 C 50.447 78.201,50.000 78.774,49.454 79.280 C 48.908 79.786,48.461 80.380,48.461 80.599 C 48.461 80.818,48.050 81.407,47.548 81.910 C 47.046 82.412,46.515 83.135,46.369 83.516 C 46.222 83.898,45.930 84.211,45.719 84.211 C 45.509 84.211,45.214 84.596,45.065 85.067 C 44.915 85.538,44.367 86.318,43.846 86.801 C 43.326 87.283,42.900 87.881,42.900 88.129 C 42.900 88.377,42.733 88.580,42.529 88.580 C 42.326 88.580,42.034 88.974,41.881 89.455 C 41.728 89.937,41.359 90.575,41.060 90.874 C 40.761 91.173,40.516 91.653,40.516 91.942 C 40.516 92.231,40.248 92.570,39.921 92.696 C 39.593 92.822,39.325 93.198,39.325 93.533 C 39.325 93.867,39.174 94.141,38.990 94.141 C 38.806 94.141,38.314 94.809,37.898 95.625 C 37.481 96.440,36.917 97.347,36.643 97.639 C 36.370 97.931,36.147 98.425,36.147 98.737 C 36.147 99.050,35.968 99.305,35.750 99.305 C 35.531 99.305,35.353 99.573,35.353 99.901 C 35.353 100.228,35.177 100.497,34.963 100.497 C 34.749 100.497,34.461 100.943,34.324 101.490 C 34.187 102.036,33.930 102.483,33.752 102.483 C 33.575 102.483,33.312 103.019,33.168 103.674 C 33.024 104.330,32.754 104.866,32.567 104.866 C 32.381 104.866,32.103 105.268,31.949 105.760 C 31.796 106.251,31.547 106.743,31.397 106.852 C 30.999 107.141,28.600 112.194,28.600 112.742 C 28.600 112.998,28.435 113.208,28.234 113.208 C 28.033 113.208,27.751 113.744,27.607 114.399 C 27.463 115.055,27.223 115.591,27.073 115.591 C 26.728 115.591,25.422 118.578,25.422 119.367 C 25.422 119.693,25.243 119.960,25.025 119.960 C 24.806 119.960,24.627 120.184,24.625 120.457 C 24.624 120.730,24.373 121.433,24.067 122.019 C 23.761 122.605,23.390 123.633,23.243 124.303 C 23.096 124.973,22.811 125.521,22.610 125.521 C 22.409 125.521,22.244 125.968,22.244 126.514 C 22.244 127.061,22.055 127.507,21.824 127.507 C 21.592 127.507,21.506 127.674,21.631 127.877 C 21.757 128.081,21.678 128.359,21.456 128.496 C 21.234 128.634,21.053 129.182,21.053 129.716 C 21.053 130.249,20.897 130.685,20.706 130.685 C 20.516 130.685,20.245 131.400,20.106 132.274 C 19.966 133.148,19.675 133.863,19.459 133.863 C 19.243 133.863,19.067 134.214,19.067 134.644 C 19.067 135.073,18.815 136.012,18.507 136.729 C 17.720 138.564,16.683 142.154,16.683 143.045 C 16.683 143.456,16.525 143.793,16.332 143.793 C 16.138 143.793,15.857 144.777,15.707 145.978 C 15.557 147.180,15.269 148.163,15.066 148.163 C 14.863 148.163,14.697 148.621,14.697 149.182 C 14.697 149.743,14.516 150.539,14.296 150.951 C 14.075 151.364,13.781 152.782,13.643 154.103 C 13.505 155.424,13.254 156.504,13.086 156.504 C 12.917 156.504,12.653 157.845,12.500 159.484 C 12.346 161.122,12.079 162.463,11.907 162.463 C 11.735 162.463,11.466 164.161,11.311 166.236 C 11.155 168.312,10.870 170.010,10.678 170.010 C 10.485 170.010,10.328 171.136,10.328 172.512 C 10.328 173.985,10.123 175.219,9.831 175.511 C 9.108 176.234,9.108 218.602,9.831 219.325 C 10.114 219.608,10.328 220.812,10.328 222.125 C 10.328 223.392,10.481 224.429,10.668 224.429 C 10.855 224.429,11.133 226.078,11.285 228.093 C 11.437 230.108,11.707 231.851,11.886 231.966 C 12.064 232.081,12.338 233.560,12.494 235.253 C 12.651 236.946,12.921 238.332,13.096 238.332 C 13.270 238.332,13.537 239.492,13.689 240.909 C 13.841 242.327,14.130 243.589,14.331 243.713 C 14.532 243.838,14.697 244.540,14.697 245.273 C 14.697 246.007,14.879 246.668,15.102 246.742 C 15.324 246.816,15.617 247.814,15.753 248.960 C 15.888 250.105,16.142 251.043,16.317 251.043 C 16.492 251.043,16.758 251.892,16.908 252.929 C 17.059 253.967,17.289 254.995,17.420 255.214 C 17.875 255.971,19.041 259.587,19.054 260.278 C 19.061 260.660,19.243 260.973,19.459 260.973 C 19.675 260.973,19.966 261.688,20.106 262.562 C 20.245 263.436,20.493 264.151,20.655 264.151 C 20.818 264.151,21.065 264.866,21.205 265.740 C 21.345 266.614,21.636 267.329,21.852 267.329 C 22.068 267.329,22.244 267.686,22.244 268.123 C 22.244 268.560,22.407 268.918,22.607 268.918 C 22.806 268.918,23.090 269.633,23.237 270.506 C 23.385 271.380,23.661 272.095,23.850 272.095 C 24.039 272.095,24.312 272.721,24.455 273.486 C 24.599 274.250,24.875 274.876,25.069 274.876 C 25.263 274.876,25.422 275.143,25.422 275.469 C 25.422 276.258,26.728 279.245,27.073 279.245 C 27.223 279.245,27.463 279.782,27.607 280.437 C 27.751 281.092,28.019 281.629,28.203 281.629 C 28.386 281.629,28.654 282.165,28.798 282.820 C 28.942 283.476,29.225 284.012,29.426 284.012 C 29.627 284.012,29.791 284.189,29.791 284.406 C 29.791 285.085,31.155 287.984,31.474 287.984 C 31.641 287.984,31.778 288.258,31.778 288.592 C 31.778 288.927,32.028 289.297,32.334 289.414 C 32.641 289.532,33.006 290.241,33.147 290.991 C 33.287 291.740,33.531 292.354,33.687 292.354 C 33.975 292.354,34.700 293.557,35.183 294.836 C 35.327 295.218,35.603 295.531,35.796 295.531 C 35.989 295.531,36.147 295.805,36.147 296.140 C 36.147 296.474,36.415 296.851,36.743 296.977 C 37.071 297.102,37.339 297.470,37.339 297.793 C 37.339 298.307,39.502 301.746,40.165 302.284 C 40.299 302.393,40.535 302.885,40.688 303.376 C 40.842 303.868,41.113 304.270,41.291 304.270 C 41.470 304.270,41.720 304.583,41.849 304.965 C 42.175 305.937,42.944 307.049,43.992 308.064 C 44.484 308.540,44.886 309.096,44.886 309.299 C 44.886 309.767,45.953 311.186,47.368 312.599 C 47.969 313.200,48.461 313.903,48.461 314.163 C 48.461 314.423,48.908 315.050,49.454 315.556 C 50.000 316.062,50.447 316.618,50.447 316.790 C 50.447 316.963,51.162 317.784,52.036 318.616 C 52.910 319.447,53.625 320.317,53.625 320.549 C 53.625 320.781,54.608 321.938,55.809 323.121 C 57.011 324.303,57.995 325.417,57.996 325.595 C 57.997 325.773,59.025 326.939,60.280 328.187 C 61.535 329.434,62.741 330.642,62.959 330.871 C 65.995 334.046,75.442 342.729,76.510 343.325 C 76.922 343.555,77.701 344.246,78.241 344.861 C 78.782 345.475,79.529 345.978,79.903 345.978 C 80.276 345.978,80.693 346.327,80.828 346.752 C 80.963 347.178,81.431 347.640,81.868 347.779 C 82.305 347.917,83.195 348.552,83.847 349.189 C 84.499 349.826,85.282 350.348,85.588 350.348 C 85.893 350.348,86.257 350.705,86.395 351.142 C 86.534 351.579,86.876 351.936,87.156 351.936 C 87.435 351.936,88.076 352.294,88.580 352.731 C 89.084 353.168,89.639 353.525,89.814 353.525 C 89.989 353.525,90.571 353.928,91.106 354.419 C 92.664 355.850,93.156 356.192,94.072 356.483 C 94.547 356.633,94.935 356.904,94.935 357.084 C 94.935 357.264,95.382 357.524,95.929 357.661 C 96.475 357.798,96.922 358.085,96.922 358.300 C 96.922 358.514,97.190 358.689,97.517 358.689 C 97.845 358.689,98.113 358.868,98.113 359.086 C 98.113 359.305,98.359 359.484,98.660 359.484 C 98.961 359.484,99.421 359.740,99.681 360.054 C 99.941 360.368,100.663 360.736,101.285 360.873 C 101.907 361.009,102.515 361.378,102.636 361.693 C 102.756 362.007,103.129 362.264,103.463 362.264 C 103.798 362.264,104.071 362.443,104.071 362.661 C 104.071 362.880,104.429 363.059,104.866 363.059 C 105.303 363.059,105.660 363.237,105.660 363.456 C 105.660 363.674,105.856 363.853,106.094 363.853 C 106.333 363.853,106.983 364.211,107.538 364.647 C 108.094 365.084,108.881 365.442,109.289 365.442 C 109.696 365.442,110.030 365.621,110.030 365.839 C 110.030 366.058,110.298 366.236,110.626 366.236 C 110.953 366.236,111.221 366.401,111.221 366.602 C 111.221 366.803,111.758 367.085,112.413 367.229 C 113.069 367.373,113.605 367.641,113.605 367.825 C 113.605 368.009,114.141 368.277,114.796 368.421 C 115.452 368.565,115.988 368.827,115.988 369.004 C 115.988 369.181,116.614 369.443,117.378 369.587 C 118.143 369.730,118.769 369.989,118.769 370.162 C 118.769 370.335,119.752 370.811,120.953 371.219 C 122.155 371.628,123.138 372.102,123.138 372.272 C 123.138 372.443,123.853 372.697,124.727 372.837 C 125.601 372.976,126.316 373.238,126.316 373.419 C 126.316 373.600,126.941 373.865,127.706 374.008 C 128.471 374.152,129.096 374.428,129.096 374.622 C 129.096 374.816,129.454 374.975,129.891 374.975 C 130.328 374.975,130.685 375.124,130.685 375.306 C 130.685 375.488,130.909 375.664,131.182 375.697 C 132.891 375.902,134.260 376.306,134.260 376.604 C 134.260 376.796,134.975 377.066,135.849 377.206 C 136.723 377.346,137.438 377.599,137.438 377.769 C 137.438 377.939,138.332 378.201,139.424 378.352 C 140.516 378.502,141.410 378.787,141.410 378.985 C 141.410 379.183,141.837 379.345,142.358 379.345 C 142.879 379.345,143.817 379.612,144.443 379.938 C 145.069 380.264,146.162 380.532,146.872 380.534 C 147.582 380.535,148.163 380.702,148.163 380.905 C 148.163 381.108,149.146 381.396,150.348 381.546 C 151.549 381.697,152.532 381.958,152.532 382.127 C 152.532 382.297,153.113 382.537,153.823 382.662 C 158.490 383.481,160.726 383.945,161.072 384.165 C 161.291 384.305,162.810 384.548,164.449 384.707 C 166.087 384.866,167.710 385.144,168.054 385.325 C 168.399 385.506,170.499 385.779,172.721 385.933 C 174.944 386.086,176.763 386.351,176.763 386.522 C 176.763 387.326,213.861 388.086,214.648 387.298 C 214.872 387.075,216.449 386.892,218.153 386.892 C 219.857 386.892,221.251 386.738,221.251 386.551 C 221.251 386.364,223.259 386.083,225.713 385.928 C 228.167 385.773,230.268 385.503,230.381 385.328 C 230.494 385.153,231.971 384.882,233.664 384.725 C 235.357 384.569,236.743 384.303,236.743 384.134 C 236.743 383.965,237.824 383.714,239.144 383.576 C 240.465 383.438,241.884 383.145,242.296 382.924 C 242.709 382.703,243.494 382.522,244.042 382.522 C 244.589 382.522,245.140 382.356,245.266 382.153 C 245.391 381.950,246.474 381.661,247.673 381.511 C 248.871 381.362,249.851 381.104,249.851 380.939 C 249.851 380.774,250.737 380.521,251.821 380.377 C 252.904 380.234,253.898 379.942,254.029 379.730 C 254.160 379.518,254.704 379.345,255.237 379.345 C 255.770 379.345,256.207 379.183,256.207 378.985 C 256.207 378.787,257.100 378.502,258.193 378.352 C 259.285 378.201,260.179 377.927,260.179 377.743 C 260.179 377.558,260.983 377.287,261.966 377.139 C 262.949 376.992,263.754 376.713,263.754 376.519 C 263.754 376.325,264.156 376.166,264.647 376.164 C 265.139 376.163,266.053 375.895,266.679 375.569 C 267.305 375.242,268.064 374.975,268.367 374.975 C 268.670 374.975,268.918 374.796,268.918 374.578 C 268.918 374.359,269.230 374.175,269.613 374.167 C 269.995 374.160,271.023 373.808,271.897 373.386 C 272.771 372.964,273.798 372.613,274.181 372.605 C 274.563 372.598,274.876 372.413,274.876 372.195 C 274.876 371.976,275.145 371.797,275.475 371.797 C 275.804 371.797,276.921 371.369,277.957 370.846 C 278.993 370.322,282.120 368.778,284.906 367.414 C 287.691 366.050,289.970 364.780,289.970 364.592 C 289.970 364.404,290.255 364.250,290.604 364.250 C 291.210 364.250,293.526 363.121,293.942 362.622 C 294.052 362.491,294.945 361.935,295.929 361.386 C 299.433 359.427,300.695 358.606,300.695 358.284 C 300.695 358.105,301.219 357.843,301.859 357.702 C 302.500 357.562,303.237 357.190,303.497 356.876 C 303.757 356.562,304.216 356.306,304.517 356.306 C 304.818 356.306,305.065 356.168,305.065 355.999 C 305.065 355.830,305.690 355.355,306.455 354.943 C 307.219 354.532,307.845 354.044,307.845 353.860 C 307.845 353.676,308.119 353.525,308.453 353.525 C 308.788 353.525,309.162 353.264,309.285 352.945 C 309.407 352.625,309.886 352.244,310.349 352.097 C 310.812 351.950,311.524 351.407,311.930 350.890 C 312.337 350.373,312.859 349.950,313.092 349.950 C 313.324 349.950,313.928 349.503,314.434 348.957 C 314.940 348.411,315.606 347.964,315.913 347.964 C 316.221 347.964,316.808 347.517,317.218 346.971 C 317.629 346.425,318.150 345.978,318.377 345.978 C 318.605 345.978,319.081 345.665,319.435 345.283 C 319.790 344.901,320.633 344.141,321.310 343.595 C 321.986 343.049,323.412 341.796,324.478 340.812 C 325.544 339.828,327.002 338.576,327.719 338.031 C 328.435 337.487,329.508 336.528,330.104 335.901 C 330.699 335.274,331.365 334.582,331.583 334.364 C 332.099 333.848,335.437 330.510,335.953 329.994 C 336.171 329.776,336.914 329.063,337.602 328.410 C 338.291 327.756,339.340 326.583,339.934 325.801 C 340.527 325.020,341.728 323.635,342.602 322.724 C 343.476 321.812,344.638 320.480,345.184 319.764 C 345.730 319.047,346.490 318.178,346.872 317.832 C 347.254 317.485,347.567 317.016,347.567 316.789 C 347.567 316.561,348.014 316.040,348.560 315.630 C 349.106 315.219,349.553 314.632,349.553 314.325 C 349.553 314.017,350.000 313.351,350.546 312.845 C 351.092 312.339,351.539 311.735,351.539 311.503 C 351.539 311.270,351.980 310.734,352.519 310.310 C 353.058 309.886,353.409 309.450,353.301 309.342 C 353.192 309.233,353.553 308.718,354.102 308.197 C 354.651 307.676,355.104 307.026,355.107 306.753 C 355.111 306.480,355.281 306.256,355.485 306.256 C 355.688 306.256,355.982 305.854,356.137 305.362 C 356.293 304.871,356.726 304.201,357.100 303.873 C 357.475 303.545,357.908 302.875,358.063 302.383 C 358.219 301.892,358.512 301.490,358.716 301.490 C 358.920 301.490,359.086 301.243,359.086 300.942 C 359.086 300.641,359.338 300.186,359.646 299.931 C 359.953 299.676,360.498 298.850,360.856 298.095 C 361.214 297.340,361.663 296.723,361.854 296.723 C 362.045 296.723,362.319 296.187,362.463 295.531 C 362.607 294.876,362.877 294.340,363.063 294.340 C 363.250 294.340,363.528 293.937,363.681 293.446 C 363.835 292.954,364.079 292.463,364.225 292.354 C 364.371 292.244,364.805 291.529,365.190 290.765 C 366.240 288.681,367.199 287.016,367.477 286.792 C 367.614 286.683,367.851 286.013,368.005 285.303 C 368.160 284.593,368.450 284.012,368.651 284.012 C 368.852 284.012,369.017 283.744,369.017 283.416 C 369.017 283.088,369.181 282.820,369.383 282.820 C 369.584 282.820,369.866 282.284,370.010 281.629 C 370.154 280.973,370.436 280.437,370.637 280.437 C 370.838 280.437,371.009 280.214,371.016 279.940 C 371.024 279.667,371.375 278.729,371.797 277.855 C 372.220 276.981,372.571 275.953,372.578 275.571 C 372.586 275.189,372.771 274.876,372.989 274.876 C 373.208 274.876,373.386 274.518,373.386 274.081 C 373.386 273.644,373.557 273.287,373.766 273.287 C 373.974 273.287,374.262 272.661,374.406 271.897 C 374.549 271.132,374.810 270.506,374.984 270.506 C 375.159 270.506,375.423 269.791,375.571 268.918 C 375.719 268.044,375.987 267.329,376.167 267.329 C 376.347 267.329,376.615 266.614,376.763 265.740 C 376.910 264.866,377.194 264.151,377.393 264.151 C 377.593 264.151,377.756 263.704,377.756 263.158 C 377.756 262.612,377.932 262.165,378.148 262.165 C 378.364 262.165,378.655 261.450,378.795 260.576 C 378.935 259.702,379.185 258.987,379.350 258.987 C 379.516 258.987,379.772 258.187,379.918 257.209 C 380.065 256.231,380.353 255.327,380.559 255.199 C 380.765 255.072,380.933 254.442,380.933 253.800 C 380.933 253.157,381.095 252.632,381.293 252.632 C 381.491 252.632,381.781 251.693,381.937 250.546 C 382.093 249.399,382.383 248.358,382.581 248.232 C 382.779 248.107,383.050 247.079,383.184 245.948 C 383.318 244.818,383.570 243.893,383.745 243.893 C 383.920 243.893,384.186 242.642,384.337 241.112 C 384.488 239.583,384.767 238.332,384.957 238.332 C 385.147 238.332,385.303 237.717,385.303 236.965 C 385.303 236.213,385.463 235.499,385.659 235.378 C 385.854 235.257,386.141 233.726,386.296 231.976 C 386.451 230.226,386.720 228.706,386.895 228.598 C 387.070 228.490,387.342 226.480,387.500 224.131 C 387.662 221.718,387.981 219.738,388.233 219.578 C 388.853 219.184,388.869 175.667,388.250 175.259 C 388.014 175.103,387.627 173.009,387.391 170.606 C 387.155 168.203,386.671 164.717,386.315 162.860 C 385.959 161.003,385.567 158.813,385.443 157.994 C 385.320 157.175,385.085 156.504,384.921 156.504 C 384.756 156.504,384.507 155.406,384.366 154.062 C 384.226 152.719,383.954 151.423,383.763 151.183 C 383.571 150.942,383.291 149.717,383.139 148.461 C 382.987 147.205,382.720 146.177,382.545 146.177 C 382.370 146.177,382.110 145.290,381.966 144.207 C 381.822 143.124,381.531 142.130,381.319 141.999 C 381.107 141.868,380.933 141.335,380.933 140.814 C 380.933 140.294,380.775 139.770,380.582 139.651 C 380.389 139.532,380.110 138.627,379.962 137.641 C 379.814 136.656,379.548 135.849,379.371 135.849 C 379.194 135.849,378.935 135.134,378.795 134.260 C 378.655 133.386,378.364 132.671,378.148 132.671 C 377.932 132.671,377.756 132.224,377.756 131.678 C 377.756 131.132,377.600 130.685,377.409 130.685 C 377.219 130.685,376.948 129.970,376.809 129.096 C 376.669 128.222,376.401 127.507,376.213 127.507 C 376.025 127.507,375.757 126.792,375.617 125.919 C 375.477 125.045,375.209 124.330,375.021 124.330 C 374.833 124.330,374.565 123.615,374.425 122.741 C 374.286 121.867,373.995 121.152,373.779 121.152 C 373.563 121.152,373.386 120.884,373.386 120.556 C 373.386 120.228,373.208 119.960,372.989 119.960 C 372.771 119.960,372.586 119.647,372.578 119.265 C 372.571 118.883,372.220 117.855,371.797 116.981 C 371.375 116.107,371.024 115.169,371.016 114.896 C 371.009 114.623,370.838 114.399,370.637 114.399 C 370.436 114.399,370.154 113.863,370.010 113.208 C 369.866 112.552,369.584 112.016,369.383 112.016 C 369.181 112.016,369.017 111.658,369.017 111.221 C 369.017 110.785,368.852 110.427,368.651 110.427 C 368.450 110.427,368.168 109.891,368.024 109.235 C 367.880 108.580,367.610 108.044,367.423 108.044 C 367.120 108.044,366.410 106.424,366.589 106.143 C 366.629 106.080,366.387 105.755,366.052 105.419 C 365.716 105.084,365.442 104.554,365.442 104.242 C 365.442 103.930,365.263 103.674,365.045 103.674 C 364.826 103.674,364.647 103.406,364.647 103.078 C 364.647 102.751,364.488 102.483,364.293 102.483 C 364.099 102.483,363.827 102.036,363.690 101.490 C 363.553 100.943,363.280 100.497,363.083 100.497 C 362.886 100.497,362.607 99.960,362.463 99.305 C 362.319 98.649,362.077 98.113,361.926 98.113 C 361.774 98.113,361.297 97.443,360.866 96.624 C 360.434 95.804,359.857 94.898,359.584 94.609 C 359.310 94.320,359.086 93.918,359.086 93.715 C 359.086 93.513,358.774 93.016,358.391 92.612 C 357.073 91.218,356.386 90.251,356.121 89.417 C 355.975 88.957,355.688 88.580,355.485 88.580 C 355.281 88.580,355.114 88.340,355.114 88.046 C 355.114 87.752,354.757 87.188,354.320 86.792 C 353.883 86.397,353.525 85.914,353.525 85.720 C 353.525 85.525,353.078 84.919,352.532 84.373 C 351.986 83.827,351.539 83.201,351.539 82.982 C 351.539 82.763,351.092 82.170,350.546 81.663 C 350.000 81.157,349.553 80.565,349.553 80.348 C 349.553 80.130,349.106 79.617,348.560 79.207 C 348.014 78.796,347.567 78.257,347.567 78.007 C 347.567 77.758,346.897 76.822,346.077 75.928 C 342.685 72.224,340.790 70.053,340.138 69.122 C 339.254 67.860,327.304 56.008,326.916 56.008 C 326.755 56.008,325.661 55.029,324.484 53.832 C 323.307 52.636,322.184 51.653,321.989 51.648 C 321.795 51.643,321.131 51.111,320.514 50.465 C 319.897 49.820,318.895 48.975,318.286 48.588 C 317.678 48.201,317.037 47.656,316.862 47.378 C 316.687 47.100,316.208 46.872,315.797 46.872 C 315.385 46.872,314.944 46.559,314.815 46.177 C 314.687 45.794,313.871 45.044,313.001 44.508 C 312.132 43.973,311.420 43.392,311.420 43.217 C 311.420 43.043,311.152 42.900,310.824 42.900 C 310.497 42.900,310.228 42.733,310.228 42.529 C 310.228 42.326,309.826 42.033,309.335 41.880 C 308.843 41.726,308.352 41.479,308.242 41.330 C 308.053 41.073,304.147 38.376,302.748 37.537 C 302.384 37.319,301.996 37.038,301.887 36.912 C 301.778 36.787,301.420 36.557,301.092 36.400 C 300.457 36.097,299.840 35.728,297.319 34.143 C 296.445 33.594,295.372 32.921,294.935 32.648 C 294.499 32.375,293.828 32.047,293.446 31.918 C 293.064 31.790,292.751 31.541,292.751 31.366 C 292.751 31.190,292.185 30.922,291.493 30.770 C 290.801 30.618,289.866 30.150,289.416 29.730 C 288.965 29.310,288.190 28.864,287.694 28.740 C 287.198 28.616,286.792 28.374,286.792 28.203 C 286.792 28.031,286.303 27.769,285.704 27.618 C 285.105 27.468,284.525 27.225,284.413 27.079 C 284.061 26.615,278.769 24.230,278.093 24.230 C 277.853 24.230,277.656 24.041,277.656 23.810 C 277.656 23.578,277.490 23.492,277.287 23.618 C 277.083 23.743,276.805 23.664,276.667 23.442 C 276.530 23.220,276.071 23.039,275.647 23.039 C 275.223 23.039,274.876 22.860,274.876 22.642 C 274.876 22.423,274.622 22.244,274.312 22.244 C 274.002 22.244,273.243 21.987,272.624 21.673 C 270.840 20.766,268.634 19.861,268.208 19.861 C 267.993 19.861,267.305 19.594,266.679 19.268 C 266.053 18.941,265.139 18.673,264.647 18.672 C 264.156 18.670,263.754 18.491,263.754 18.272 C 263.754 18.054,263.307 17.875,262.761 17.875 C 262.214 17.875,261.768 17.696,261.768 17.478 C 261.768 17.259,261.634 17.111,261.470 17.147 C 260.852 17.286,258.193 16.581,258.193 16.279 C 258.193 16.105,257.299 15.840,256.207 15.690 C 255.114 15.540,254.220 15.275,254.220 15.102 C 254.220 14.809,250.812 14.081,250.149 14.232 C 249.985 14.269,249.851 14.121,249.851 13.903 C 249.851 13.684,249.315 13.505,248.659 13.505 C 248.004 13.505,247.468 13.344,247.468 13.147 C 247.468 12.950,246.395 12.665,245.084 12.512 C 243.772 12.360,242.607 12.085,242.493 11.901 C 242.379 11.716,241.038 11.443,239.514 11.293 C 237.990 11.142,236.743 10.887,236.743 10.724 C 236.743 10.562,235.894 10.331,234.856 10.212 C 233.818 10.093,232.522 9.884,231.976 9.749 C 230.957 9.495,227.546 8.985,222.642 8.352 C 221.112 8.155,218.565 7.982,216.981 7.969 C 215.342 7.955,214.101 7.773,214.101 7.547 C 214.101 7.052,184.453 6.994,184.147 7.489 M199.801 70.471 C 208.772 72.656,216.011 78.611,236.245 100.450 L 238.594 102.985 241.343 102.508 C 244.406 101.977,244.546 101.935,256.818 97.886 C 261.632 96.298,267.084 94.649,268.933 94.222 C 270.781 93.796,273.366 93.203,274.677 92.905 C 280.218 91.643,291.414 92.453,295.929 94.441 C 301.394 96.848,306.597 102.124,311.498 110.228 C 314.807 115.700,319.305 125.241,321.544 131.539 C 326.852 146.470,329.701 158.277,331.736 173.784 C 332.424 179.024,332.437 200.165,331.756 205.561 C 330.831 212.896,330.008 218.246,329.222 222.046 C 327.818 228.837,327.705 229.339,327.310 230.565 C 327.096 231.232,326.364 233.654,325.683 235.948 C 324.457 240.083,322.181 246.565,321.149 248.858 C 320.855 249.513,320.224 250.943,319.748 252.036 C 308.211 278.521,288.418 300.120,261.966 315.092 C 249.836 321.958,234.986 326.866,216.683 330.057 C 206.163 331.892,185.991 331.884,174.777 330.040 C 166.490 328.677,155.471 325.827,150.348 323.720 C 149.911 323.541,148.302 322.913,146.773 322.325 C 143.407 321.031,134.421 316.681,131.678 315.018 C 130.586 314.356,129.424 313.692,129.096 313.542 C 128.234 313.148,122.123 309.120,119.531 307.236 C 99.000 292.314,81.757 269.949,72.534 246.276 C 71.470 243.545,70.459 240.953,70.288 240.516 C 69.598 238.757,67.935 233.667,67.562 232.175 C 67.344 231.301,66.880 229.513,66.530 228.203 C 66.181 226.892,65.548 224.121,65.124 222.046 C 64.700 219.970,64.170 217.468,63.946 216.485 C 63.721 215.501,63.375 213.255,63.175 211.492 C 62.975 209.729,62.706 207.852,62.578 207.321 C 62.069 205.224,61.713 189.464,62.006 182.038 C 62.531 168.769,64.306 158.235,68.687 142.403 C 69.479 139.540,73.842 127.055,74.656 125.323 C 74.861 124.886,75.477 123.516,76.024 122.278 L 77.019 120.028 79.721 119.739 C 93.400 118.273,114.840 121.751,132.184 128.250 L 134.278 129.034 136.315 125.987 C 138.769 122.315,143.973 115.576,148.332 110.427 C 150.089 108.352,151.976 106.120,152.526 105.467 C 157.398 99.687,171.596 85.595,176.946 81.231 C 178.017 80.357,179.442 79.178,180.112 78.610 C 188.919 71.147,193.984 69.054,199.801 70.471 M193.446 94.968 C 183.957 97.737,171.048 113.197,158.878 136.368 C 155.942 141.956,155.834 141.259,160.097 144.251 C 162.073 145.638,165.004 147.695,166.610 148.823 C 173.699 153.802,174.165 153.897,175.974 150.735 C 176.659 149.537,177.430 148.334,177.687 148.062 C 177.944 147.790,178.627 146.852,179.205 145.978 C 183.117 140.061,191.530 131.500,202.065 122.715 C 203.685 121.364,213.488 114.153,215.569 112.781 C 218.205 111.043,218.269 111.310,214.208 107.085 C 203.187 95.616,199.201 93.289,193.446 94.968 M272.890 115.627 C 271.251 115.809,269.196 116.165,268.322 116.419 C 267.448 116.672,265.839 117.131,264.747 117.439 C 263.654 117.746,261.956 118.245,260.973 118.547 C 259.990 118.850,257.979 119.407,256.504 119.786 C 253.947 120.444,253.376 120.932,254.191 121.768 C 254.536 122.121,257.303 127.576,258.715 130.685 C 259.759 132.985,261.600 137.836,262.711 141.212 C 263.286 142.959,263.958 145.004,264.205 145.755 C 269.119 160.706,272.394 187.837,271.344 204.904 C 268.965 243.593,257.961 264.286,233.565 275.946 C 223.269 280.867,217.603 282.135,205.958 282.123 C 182.775 282.101,165.893 270.029,156.108 246.475 C 155.926 246.038,155.472 244.697,155.098 243.496 C 154.724 242.294,154.260 240.895,154.066 240.388 C 153.873 239.880,153.525 238.629,153.295 237.607 C 148.624 216.919,151.218 195.650,160.641 177.377 C 162.484 173.804,162.535 174.022,159.186 171.170 C 157.602 169.821,155.816 168.294,155.218 167.776 C 143.746 157.843,128.250 149.386,114.598 145.607 C 108.932 144.039,106.946 143.666,99.702 142.808 C 91.547 141.843,90.290 141.931,89.956 143.496 C 89.804 144.206,89.553 144.965,89.398 145.184 C 89.243 145.402,88.796 146.743,88.404 148.163 C 88.012 149.583,87.456 151.549,87.169 152.532 C 86.881 153.515,86.358 155.660,86.005 157.299 C 85.653 158.937,85.210 160.814,85.022 161.470 C 84.701 162.586,84.081 166.288,82.962 173.784 C 82.253 178.528,82.170 199.057,82.839 204.171 C 83.607 210.046,84.605 216.109,84.995 217.279 C 85.178 217.825,85.623 219.613,85.984 221.251 C 86.648 224.260,86.928 225.224,88.806 230.983 C 98.179 259.729,119.064 284.589,144.506 297.287 C 148.219 299.140,149.581 299.773,153.525 301.479 C 155.078 302.151,159.917 303.810,162.264 304.476 C 163.575 304.848,165.452 305.387,166.435 305.675 C 167.418 305.963,169.742 306.493,171.599 306.852 C 173.456 307.211,175.690 307.668,176.564 307.868 C 183.258 309.401,203.106 309.393,210.725 307.854 C 211.817 307.634,214.499 307.099,216.683 306.665 C 222.749 305.462,231.398 302.914,235.015 301.266 C 235.704 300.952,236.382 300.695,236.521 300.695 C 236.853 300.695,241.124 298.715,245.879 296.358 C 259.671 289.520,275.397 276.996,284.823 265.343 C 285.795 264.141,286.815 262.921,287.090 262.632 C 294.479 254.849,305.110 232.932,308.413 218.669 C 308.767 217.140,309.223 215.174,309.427 214.300 C 313.243 197.923,311.676 169.491,305.859 149.553 C 305.175 147.210,303.229 141.391,302.671 140.020 C 302.404 139.364,302.042 138.471,301.868 138.034 C 296.328 124.145,289.071 116.764,279.841 115.634 C 277.875 115.393,276.177 115.219,276.068 115.246 C 275.958 115.274,274.528 115.445,272.890 115.627 M230.219 131.033 C 230.101 131.224,228.705 132.146,227.117 133.081 C 216.618 139.265,207.982 146.694,198.013 158.117 C 186.226 171.624,176.757 189.399,173.270 204.568 C 172.843 206.425,172.248 209.017,171.947 210.328 C 171.185 213.650,171.177 231.831,171.937 234.359 C 173.993 241.203,176.135 244.920,180.535 249.281 C 183.155 251.877,189.148 256.207,190.123 256.207 C 190.246 256.207,190.910 256.450,191.598 256.747 C 197.023 259.087,199.554 259.577,206.157 259.565 C 211.740 259.554,215.125 259.042,218.420 257.709 C 218.994 257.477,220.089 257.034,220.854 256.725 C 244.366 247.227,256.448 208.881,248.426 169.215 C 246.263 158.518,242.967 149.574,237.751 140.247 C 236.552 138.104,231.090 130.689,230.709 130.687 C 230.558 130.686,230.337 130.842,230.219 131.033 " stroke="none" fill="#f3f3f3" fill-rule="evenodd"></path><path id="path2" d="M195.134 70.195 C 195.735 70.286,196.718 70.286,197.319 70.195 C 197.920 70.104,197.428 70.030,196.226 70.030 C 195.025 70.030,194.533 70.104,195.134 70.195 M217.875 81.827 C 218.728 82.701,219.516 83.416,219.625 83.416 C 219.734 83.416,219.125 82.701,218.272 81.827 C 217.419 80.953,216.631 80.238,216.522 80.238 C 216.413 80.238,217.022 80.953,217.875 81.827 M175.450 82.436 C 174.837 82.975,174.493 83.416,174.685 83.416 C 174.878 83.416,175.455 82.969,175.968 82.423 C 177.155 81.159,176.893 81.166,175.450 82.436 M171.782 85.899 L 169.811 87.984 171.897 86.013 C 173.044 84.929,173.982 83.990,173.982 83.928 C 173.982 83.631,173.614 83.961,171.782 85.899 M163.846 93.446 L 159.484 97.915 163.952 93.552 C 168.103 89.500,168.601 88.977,168.315 88.977 C 168.257 88.977,166.246 90.988,163.846 93.446 M227.408 91.360 C 228.261 92.234,229.049 92.949,229.158 92.949 C 229.267 92.949,228.659 92.234,227.805 91.360 C 226.952 90.487,226.164 89.772,226.055 89.772 C 225.946 89.772,226.555 90.487,227.408 91.360 M281.132 92.446 C 282.061 92.529,283.580 92.529,284.508 92.446 C 285.437 92.362,284.677 92.294,282.820 92.294 C 280.963 92.294,280.204 92.362,281.132 92.446 M274.677 92.952 C 274.166 93.174,274.591 93.215,275.869 93.067 C 276.961 92.941,277.929 92.773,278.021 92.695 C 278.365 92.398,275.436 92.623,274.677 92.952 M288.083 92.826 C 288.466 92.926,289.091 92.926,289.474 92.826 C 289.856 92.726,289.543 92.644,288.779 92.644 C 288.014 92.644,287.701 92.726,288.083 92.826 M232.771 97.120 C 233.512 97.885,234.207 98.510,234.317 98.510 C 234.426 98.510,233.909 97.885,233.168 97.120 C 232.427 96.356,231.731 95.730,231.622 95.730 C 231.512 95.730,232.029 96.356,232.771 97.120 M255.611 98.326 C 254.617 98.804,254.584 98.859,255.412 98.657 C 256.538 98.382,257.803 97.737,257.200 97.746 C 256.981 97.749,256.266 98.010,255.611 98.326 M252.433 99.305 C 251.932 99.520,251.859 99.646,252.234 99.646 C 252.562 99.646,253.188 99.493,253.625 99.305 C 254.125 99.090,254.199 98.963,253.823 98.963 C 253.496 98.963,252.870 99.117,252.433 99.305 M208.342 100.894 C 209.195 101.768,209.982 102.483,210.092 102.483 C 210.201 102.483,209.592 101.768,208.739 100.894 C 207.886 100.020,207.098 99.305,206.989 99.305 C 206.879 99.305,207.488 100.020,208.342 100.894 M181.717 102.582 L 178.947 105.462 181.827 102.692 C 183.411 101.168,184.707 99.873,184.707 99.812 C 184.707 99.521,184.290 99.907,181.717 102.582 M155.496 102.185 L 153.525 104.270 155.611 102.299 C 157.549 100.467,157.878 100.099,157.582 100.099 C 157.519 100.099,156.581 101.038,155.496 102.185 M212.314 105.263 C 213.390 106.356,214.359 107.249,214.469 107.249 C 214.578 107.249,213.787 106.356,212.711 105.263 C 211.635 104.171,210.665 103.277,210.556 103.277 C 210.447 103.277,211.238 104.171,212.314 105.263 M177.731 106.951 L 176.564 108.242 177.855 107.076 C 179.058 105.988,179.329 105.660,179.022 105.660 C 178.953 105.660,178.372 106.241,177.731 106.951 M309.221 107.150 C 309.833 108.078,310.410 108.838,310.502 108.838 C 310.789 108.838,309.268 106.421,308.671 105.928 C 308.361 105.671,308.608 106.221,309.221 107.150 M273.188 115.474 C 273.679 115.569,274.484 115.569,274.975 115.474 C 275.467 115.379,275.065 115.302,274.081 115.302 C 273.098 115.302,272.696 115.379,273.188 115.474 M278.352 115.474 C 278.843 115.569,279.647 115.569,280.139 115.474 C 280.631 115.379,280.228 115.302,279.245 115.302 C 278.262 115.302,277.860 115.379,278.352 115.474 M263.158 117.577 C 262.657 117.792,262.584 117.918,262.959 117.918 C 263.287 117.918,263.913 117.765,264.350 117.577 C 264.850 117.362,264.924 117.236,264.548 117.236 C 264.220 117.236,263.595 117.389,263.158 117.577 M259.186 118.769 C 258.685 118.984,258.612 119.110,258.987 119.110 C 259.315 119.110,259.940 118.956,260.377 118.769 C 260.878 118.553,260.952 118.427,260.576 118.427 C 260.248 118.427,259.623 118.581,259.186 118.769 M291.360 121.152 C 292.436 122.244,293.406 123.138,293.515 123.138 C 293.625 123.138,292.834 122.244,291.758 121.152 C 290.682 120.060,289.712 119.166,289.603 119.166 C 289.494 119.166,290.285 120.060,291.360 121.152 M83.139 119.859 C 85.280 119.931,88.676 119.931,90.686 119.859 C 92.695 119.787,90.943 119.728,86.792 119.729 C 82.642 119.729,80.997 119.788,83.139 119.859 M96.232 120.245 C 96.836 120.337,97.729 120.334,98.218 120.240 C 98.707 120.146,98.213 120.071,97.120 120.074 C 96.028 120.077,95.628 120.154,96.232 120.245 M167.016 121.648 C 166.404 122.577,166.156 123.127,166.467 122.871 C 167.063 122.378,168.584 119.960,168.298 119.960 C 168.205 119.960,167.628 120.720,167.016 121.648 M103.310 120.898 C 103.401 120.977,104.280 121.148,105.263 121.278 C 106.457 121.436,106.787 121.397,106.256 121.162 C 105.498 120.826,102.965 120.599,103.310 120.898 M254.419 122.741 C 254.758 123.396,255.125 123.932,255.234 123.932 C 255.343 123.932,255.155 123.396,254.816 122.741 C 254.477 122.085,254.111 121.549,254.001 121.549 C 253.892 121.549,254.080 122.085,254.419 122.741 M111.221 122.344 C 112.580 122.779,113.624 122.779,112.612 122.344 C 112.175 122.156,111.460 122.007,111.023 122.014 C 110.384 122.023,110.423 122.088,111.221 122.344 M119.364 124.330 C 119.801 124.517,120.427 124.671,120.755 124.671 C 121.130 124.671,121.057 124.545,120.556 124.330 C 120.119 124.142,119.494 123.988,119.166 123.988 C 118.790 123.988,118.864 124.115,119.364 124.330 M165.125 124.628 C 165.034 124.791,164.458 125.819,163.844 126.912 C 163.231 128.004,162.914 128.719,163.139 128.500 C 163.714 127.943,165.762 124.330,165.503 124.330 C 165.386 124.330,165.216 124.464,165.125 124.628 M74.259 126.172 C 74.040 126.749,73.934 127.294,74.024 127.384 C 74.114 127.474,74.378 127.003,74.611 126.336 C 75.127 124.854,74.815 124.709,74.259 126.172 M196.797 127.210 L 195.631 128.500 196.922 127.334 C 197.632 126.692,198.213 126.111,198.213 126.043 C 198.213 125.736,197.885 126.006,196.797 127.210 M257.426 128.500 C 257.426 128.719,257.682 129.345,257.994 129.891 C 258.306 130.437,258.562 130.705,258.562 130.487 C 258.562 130.268,258.306 129.643,257.994 129.096 C 257.682 128.550,257.426 128.282,257.426 128.500 M189.467 134.161 L 184.906 138.828 189.573 134.267 C 193.908 130.030,194.421 129.494,194.135 129.494 C 194.076 129.494,191.976 131.594,189.467 134.161 M90.869 142.088 C 91.363 142.183,92.078 142.180,92.457 142.080 C 92.837 141.981,92.433 141.903,91.559 141.908 C 90.685 141.912,90.374 141.993,90.869 142.088 M96.827 142.486 C 97.321 142.581,98.036 142.577,98.416 142.477 C 98.796 142.378,98.391 142.300,97.517 142.305 C 96.643 142.309,96.333 142.390,96.827 142.486 M99.801 142.876 C 100.184 142.976,100.809 142.976,101.192 142.876 C 101.574 142.776,101.261 142.694,100.497 142.694 C 99.732 142.694,99.419 142.776,99.801 142.876 M209.515 145.879 L 207.944 147.567 209.633 145.997 C 211.203 144.537,211.503 144.191,211.203 144.191 C 211.138 144.191,210.378 144.950,209.515 145.879 M264.207 146.574 C 264.207 146.902,264.360 147.527,264.548 147.964 C 264.763 148.465,264.890 148.538,264.890 148.163 C 264.890 147.835,264.736 147.210,264.548 146.773 C 264.333 146.272,264.207 146.198,264.207 146.574 M164.052 147.353 C 164.598 147.811,165.402 148.371,165.839 148.598 C 166.381 148.880,166.318 148.746,165.641 148.178 C 165.094 147.720,164.290 147.160,163.853 146.933 C 163.311 146.652,163.374 146.785,164.052 147.353 M241.538 147.567 C 241.538 147.786,241.793 148.411,242.105 148.957 C 242.417 149.503,242.673 149.772,242.673 149.553 C 242.673 149.335,242.417 148.709,242.105 148.163 C 241.793 147.617,241.538 147.349,241.538 147.567 M66.981 148.377 C 66.844 148.732,66.748 149.320,66.767 149.685 C 66.786 150.049,66.959 149.820,67.151 149.176 C 67.526 147.922,67.393 147.302,66.981 148.377 M177.014 149.057 L 176.299 150.348 177.118 149.355 C 177.844 148.474,178.166 147.766,177.841 147.766 C 177.779 147.766,177.407 148.347,177.014 149.057 M87.218 151.170 C 87.072 151.753,87.029 152.305,87.123 152.399 C 87.216 152.493,87.412 152.093,87.559 151.511 C 87.705 150.929,87.748 150.376,87.654 150.282 C 87.560 150.189,87.364 150.588,87.218 151.170 M65.789 153.143 C 65.653 153.498,65.557 154.087,65.575 154.452 C 65.594 154.816,65.767 154.587,65.959 153.943 C 66.334 152.689,66.201 152.068,65.789 153.143 M201.173 154.220 L 199.603 155.909 201.291 154.338 C 202.861 152.878,203.162 152.532,202.861 152.532 C 202.796 152.532,202.037 153.292,201.173 154.220 M266.379 155.114 C 266.706 156.575,266.934 156.892,266.925 155.876 C 266.922 155.457,266.738 154.846,266.516 154.518 C 266.222 154.083,266.185 154.244,266.379 155.114 M86.026 155.540 C 85.880 156.122,85.837 156.675,85.931 156.768 C 86.025 156.862,86.221 156.462,86.367 155.880 C 86.513 155.298,86.556 154.745,86.462 154.652 C 86.369 154.558,86.172 154.958,86.026 155.540 M198.018 157.692 C 197.392 158.345,196.957 158.943,197.050 159.020 C 197.143 159.098,197.729 158.564,198.351 157.833 C 199.756 156.183,199.548 156.095,198.018 157.692 M85.059 159.948 C 85.029 160.421,84.902 161.136,84.776 161.537 C 84.560 162.225,84.572 162.226,85.001 161.558 C 85.250 161.169,85.378 160.454,85.284 159.969 C 85.113 159.087,85.113 159.087,85.059 159.948 M329.374 160.278 C 329.374 160.715,329.517 161.519,329.692 162.066 C 329.944 162.852,330.010 162.893,330.010 162.264 C 330.010 161.827,329.867 161.023,329.692 160.477 C 329.440 159.690,329.374 159.649,329.374 160.278 M145.382 160.204 C 145.382 160.302,146.039 160.883,146.841 161.495 C 147.643 162.106,148.173 162.404,148.020 162.156 C 147.706 161.648,145.382 159.928,145.382 160.204 M194.390 162.165 C 193.217 163.503,192.532 164.449,192.735 164.449 C 192.834 164.449,193.490 163.734,194.193 162.860 C 195.556 161.163,195.694 160.677,194.390 162.165 M309.065 164.085 C 309.080 164.613,309.255 165.402,309.453 165.839 C 309.703 166.393,309.739 166.152,309.571 165.045 C 309.290 163.200,309.024 162.697,309.065 164.085 M63.357 166.038 C 63.202 167.158,63.160 168.159,63.263 168.261 C 63.365 168.364,63.571 167.527,63.721 166.402 C 63.870 165.277,63.912 164.276,63.814 164.178 C 63.717 164.081,63.511 164.917,63.357 166.038 M268.607 166.038 C 268.603 166.584,268.743 167.478,268.918 168.024 C 269.345 169.359,269.345 167.917,268.918 166.236 C 268.645 165.166,268.614 165.146,268.607 166.038 M154.551 167.329 C 154.643 167.383,155.253 167.875,155.909 168.421 L 157.100 169.414 156.137 168.322 C 155.608 167.721,154.997 167.229,154.780 167.229 C 154.563 167.229,154.460 167.274,154.551 167.329 M248.330 168.620 C 248.323 169.057,248.472 169.772,248.659 170.209 C 249.094 171.221,249.094 170.176,248.659 168.818 C 248.404 168.020,248.339 167.981,248.330 168.620 M83.119 171.400 C 83.123 172.274,83.205 172.585,83.300 172.091 C 83.395 171.597,83.391 170.882,83.292 170.502 C 83.192 170.122,83.115 170.526,83.119 171.400 M310.329 171.797 C 310.333 172.671,310.414 172.982,310.509 172.488 C 310.604 171.994,310.601 171.279,310.501 170.899 C 310.402 170.519,310.324 170.924,310.329 171.797 M160.924 172.592 C 161.497 173.247,162.064 174.052,162.183 174.379 C 162.370 174.893,162.404 174.889,162.431 174.354 C 162.449 174.013,161.882 173.209,161.172 172.567 L 159.881 171.400 160.924 172.592 M62.472 173.982 C 62.472 174.965,62.549 175.367,62.644 174.876 C 62.738 174.384,62.738 173.580,62.644 173.088 C 62.549 172.597,62.472 172.999,62.472 173.982 M269.812 173.784 C 269.817 174.657,269.898 174.968,269.993 174.474 C 270.088 173.980,270.084 173.265,269.985 172.885 C 269.886 172.505,269.808 172.910,269.812 173.784 M82.714 174.379 C 82.714 175.144,82.796 175.457,82.895 175.074 C 82.995 174.692,82.995 174.067,82.895 173.684 C 82.796 173.302,82.714 173.615,82.714 174.379 M249.546 175.571 C 249.546 176.336,249.628 176.648,249.728 176.266 C 249.828 175.884,249.828 175.258,249.728 174.876 C 249.628 174.494,249.546 174.806,249.546 175.571 M331.809 177.756 C 331.810 179.285,331.882 179.862,331.968 179.038 C 332.054 178.214,332.053 176.962,331.965 176.257 C 331.877 175.552,331.807 176.226,331.809 177.756 M82.317 178.352 C 82.317 179.116,82.398 179.429,82.498 179.047 C 82.598 178.664,82.598 178.039,82.498 177.656 C 82.398 177.274,82.317 177.587,82.317 178.352 M62.074 179.146 C 62.074 180.129,62.152 180.531,62.247 180.040 C 62.341 179.548,62.341 178.744,62.247 178.252 C 62.152 177.761,62.074 178.163,62.074 179.146 M311.318 183.118 C 311.431 186.068,311.590 188.555,311.671 188.646 C 311.920 188.927,311.742 183.065,311.419 180.338 C 311.221 178.671,311.186 179.656,311.318 183.118 M250.348 182.125 C 250.353 182.999,250.434 183.310,250.529 182.816 C 250.624 182.322,250.621 181.607,250.521 181.227 C 250.422 180.847,250.344 181.251,250.348 182.125 M81.993 189.871 C 81.993 194.131,82.052 195.874,82.123 193.744 C 82.195 191.614,82.195 188.128,82.123 185.998 C 82.052 183.868,81.993 185.611,81.993 189.871 M332.209 185.104 C 332.209 186.743,332.279 187.413,332.365 186.594 C 332.451 185.775,332.451 184.434,332.365 183.615 C 332.279 182.795,332.209 183.466,332.209 185.104 M250.776 186.495 C 250.778 188.024,250.849 188.601,250.935 187.777 C 251.021 186.953,251.020 185.701,250.932 184.996 C 250.844 184.291,250.774 184.965,250.776 186.495 M271.047 187.488 C 271.047 189.563,271.114 190.412,271.196 189.374 C 271.277 188.337,271.277 186.639,271.196 185.601 C 271.114 184.563,271.047 185.412,271.047 187.488 M61.677 189.871 C 61.677 190.854,61.755 191.256,61.849 190.765 C 61.944 190.273,61.944 189.469,61.849 188.977 C 61.755 188.486,61.677 188.888,61.677 189.871 M271.459 197.418 C 271.459 200.586,271.520 201.882,271.596 200.298 C 271.671 198.714,271.671 196.122,271.596 194.538 C 271.520 192.954,271.459 194.250,271.459 197.418 M332.203 194.638 C 332.203 196.058,332.275 196.639,332.363 195.929 C 332.451 195.218,332.451 194.057,332.363 193.347 C 332.275 192.637,332.203 193.217,332.203 194.638 M311.554 197.418 C 311.554 199.057,311.624 199.727,311.709 198.908 C 311.795 198.088,311.795 196.748,311.709 195.929 C 311.624 195.109,311.554 195.780,311.554 197.418 M152.787 199.091 C 152.653 199.591,152.559 200.357,152.578 200.794 C 152.597 201.231,152.776 200.892,152.976 200.039 C 153.363 198.389,153.197 197.557,152.787 199.091 M250.716 200.000 C 250.673 201.092,250.557 202.969,250.457 204.171 L 250.274 206.356 250.673 204.171 C 250.892 202.969,251.008 201.092,250.932 200.000 L 250.792 198.014 250.716 200.000 M62.074 200.596 C 62.074 201.579,62.152 201.981,62.247 201.490 C 62.341 200.998,62.341 200.194,62.247 199.702 C 62.152 199.211,62.074 199.613,62.074 200.596 M331.805 201.787 C 331.805 203.208,331.877 203.788,331.966 203.078 C 332.054 202.368,332.054 201.207,331.966 200.497 C 331.877 199.786,331.805 200.367,331.805 201.787 M311.131 202.185 C 311.131 203.168,311.208 203.570,311.303 203.078 C 311.398 202.587,311.398 201.783,311.303 201.291 C 311.208 200.799,311.131 201.202,311.131 202.185 M82.714 204.965 C 82.714 205.730,82.796 206.043,82.895 205.660 C 82.995 205.278,82.995 204.652,82.895 204.270 C 82.796 203.888,82.714 204.201,82.714 204.965 M271.045 207.150 C 271.043 209.116,271.111 209.971,271.194 209.049 C 271.277 208.127,271.278 206.518,271.196 205.474 C 271.114 204.429,271.046 205.184,271.045 207.150 M62.410 205.594 C 62.436 206.450,62.601 207.686,62.776 208.342 C 62.977 209.092,63.013 208.578,62.875 206.951 C 62.629 204.057,62.338 203.209,62.410 205.594 M151.607 206.113 C 151.461 206.847,151.360 207.828,151.384 208.292 C 151.408 208.756,151.586 208.332,151.779 207.349 C 151.973 206.365,152.073 205.385,152.003 205.170 C 151.932 204.955,151.754 205.380,151.607 206.113 M83.111 207.746 C 83.111 208.510,83.193 208.823,83.293 208.441 C 83.393 208.059,83.393 207.433,83.293 207.051 C 83.193 206.668,83.111 206.981,83.111 207.746 M330.976 210.526 C 330.976 211.291,331.058 211.604,331.158 211.221 C 331.258 210.839,331.258 210.214,331.158 209.831 C 331.058 209.449,330.976 209.762,330.976 210.526 M249.546 211.321 C 249.546 212.085,249.628 212.398,249.728 212.016 C 249.828 211.634,249.828 211.008,249.728 210.626 C 249.628 210.243,249.546 210.556,249.546 211.321 M63.228 211.917 C 63.215 212.354,63.352 213.426,63.532 214.300 C 63.809 215.636,63.861 215.699,63.860 214.697 C 63.858 213.306,63.265 210.695,63.228 211.917 M151.103 217.676 C 151.103 221.063,151.164 222.448,151.239 220.755 C 151.313 219.062,151.313 216.291,151.239 214.598 C 151.164 212.905,151.103 214.290,151.103 217.676 M171.294 214.499 C 171.294 215.263,171.375 215.576,171.475 215.194 C 171.575 214.811,171.575 214.186,171.475 213.803 C 171.375 213.421,171.294 213.734,171.294 214.499 M248.510 216.699 C 248.374 217.054,248.278 217.642,248.296 218.007 C 248.315 218.371,248.488 218.142,248.680 217.498 C 249.055 216.244,248.922 215.623,248.510 216.699 M84.850 217.875 C 85.177 219.335,85.404 219.652,85.396 218.636 C 85.393 218.217,85.209 217.607,84.987 217.279 C 84.692 216.844,84.656 217.005,84.850 217.875 M170.963 222.642 C 170.964 225.919,171.025 227.206,171.100 225.503 C 171.175 223.800,171.174 221.119,171.099 219.545 C 171.024 217.971,170.963 219.364,170.963 222.642 M329.533 218.908 C 329.388 219.818,329.346 220.640,329.441 220.735 C 329.536 220.830,329.738 220.168,329.891 219.265 C 330.043 218.362,330.085 217.539,329.983 217.438 C 329.881 217.336,329.679 217.997,329.533 218.908 M269.804 219.662 C 269.804 220.427,269.886 220.740,269.986 220.357 C 270.086 219.975,270.086 219.350,269.986 218.967 C 269.886 218.585,269.804 218.898,269.804 219.662 M308.072 219.889 C 307.926 220.471,307.883 221.024,307.977 221.118 C 308.070 221.212,308.266 220.812,308.413 220.230 C 308.559 219.648,308.602 219.095,308.508 219.001 C 308.414 218.908,308.218 219.307,308.072 219.889 M85.855 222.046 C 85.855 222.373,86.009 222.999,86.197 223.436 C 86.412 223.937,86.538 224.010,86.538 223.635 C 86.538 223.307,86.384 222.681,86.197 222.244 C 85.981 221.744,85.855 221.670,85.855 222.046 M328.547 224.099 C 328.521 224.463,328.398 225.089,328.272 225.489 C 328.055 226.179,328.067 226.180,328.497 225.509 C 328.747 225.120,328.870 224.494,328.772 224.119 C 328.610 223.504,328.588 223.502,328.547 224.099 M65.547 224.661 C 65.551 225.079,65.735 225.690,65.957 226.018 C 66.251 226.453,66.288 226.292,66.093 225.422 C 65.767 223.961,65.539 223.644,65.547 224.661 M268.769 225.273 C 268.629 225.971,268.588 226.616,268.678 226.706 C 268.768 226.796,268.965 226.307,269.116 225.621 C 269.267 224.934,269.308 224.289,269.206 224.188 C 269.105 224.087,268.908 224.575,268.769 225.273 M151.433 227.210 C 151.433 227.974,151.515 228.287,151.614 227.905 C 151.714 227.522,151.714 226.897,151.614 226.514 C 151.515 226.132,151.433 226.445,151.433 227.210 M327.507 228.401 C 327.357 229.088,327.316 229.732,327.417 229.834 C 327.518 229.935,327.715 229.447,327.855 228.749 C 327.995 228.051,328.035 227.406,327.945 227.316 C 327.855 227.226,327.658 227.715,327.507 228.401 M171.841 234.955 C 172.168 236.416,172.395 236.733,172.387 235.717 C 172.384 235.298,172.200 234.687,171.978 234.359 C 171.683 233.924,171.647 234.085,171.841 234.955 M302.746 235.767 C 302.080 237.227,302.207 237.539,302.927 236.211 C 303.263 235.591,303.464 235.009,303.373 234.919 C 303.282 234.828,303.000 235.209,302.746 235.767 M153.383 237.934 C 153.383 238.262,153.536 238.888,153.724 239.325 C 153.939 239.825,154.065 239.899,154.065 239.523 C 154.065 239.196,153.912 238.570,153.724 238.133 C 153.509 237.632,153.383 237.559,153.383 237.934 M301.554 238.547 C 300.889 240.008,301.016 240.320,301.735 238.992 C 302.071 238.372,302.272 237.790,302.181 237.699 C 302.090 237.608,301.808 237.990,301.554 238.547 M92.183 240.516 C 92.183 240.735,92.439 241.360,92.751 241.907 C 93.063 242.453,93.318 242.721,93.318 242.502 C 93.318 242.284,93.063 241.658,92.751 241.112 C 92.439 240.566,92.183 240.298,92.183 240.516 M232.563 248.759 L 229.394 252.036 232.671 248.867 C 235.715 245.925,236.129 245.482,235.840 245.482 C 235.780 245.482,234.305 246.956,232.563 248.759 M180.139 249.454 C 180.992 250.328,181.780 251.043,181.889 251.043 C 181.998 251.043,181.390 250.328,180.536 249.454 C 179.683 248.580,178.895 247.865,178.786 247.865 C 178.677 247.865,179.286 248.580,180.139 249.454 M159.682 254.220 C 160.128 255.094,160.582 255.809,160.691 255.809 C 160.801 255.809,160.525 255.094,160.079 254.220 C 159.634 253.347,159.179 252.632,159.070 252.632 C 158.961 252.632,159.236 253.347,159.682 254.220 M197.219 258.987 C 197.656 259.175,198.282 259.328,198.610 259.328 C 198.985 259.328,198.912 259.202,198.411 258.987 C 197.974 258.799,197.349 258.646,197.021 258.646 C 196.645 258.646,196.719 258.772,197.219 258.987 M213.903 258.987 C 213.402 259.202,213.329 259.328,213.704 259.328 C 214.032 259.328,214.657 259.175,215.094 258.987 C 215.595 258.772,215.669 258.646,215.293 258.646 C 214.965 258.646,214.340 258.799,213.903 258.987 M204.460 260.068 C 205.165 260.156,206.416 260.157,207.240 260.071 C 208.065 259.985,207.488 259.914,205.958 259.912 C 204.429 259.910,203.755 259.980,204.460 260.068 M250.833 263.853 L 248.064 266.733 250.943 263.963 C 253.618 261.390,254.005 260.973,253.713 260.973 C 253.653 260.973,252.357 262.269,250.833 263.853 M285.635 264.303 L 284.676 265.541 285.812 264.461 C 286.438 263.867,286.869 263.309,286.771 263.222 C 286.674 263.135,286.162 263.621,285.635 264.303 M166.435 264.260 C 166.435 264.320,167.820 265.706,169.513 267.339 L 172.592 270.308 169.623 267.229 C 166.865 264.370,166.435 263.970,166.435 264.260 M277.055 273.784 L 271.897 279.047 277.160 273.889 C 282.049 269.097,282.603 268.520,282.318 268.520 C 282.260 268.520,279.892 270.889,277.055 273.784 M110.064 269.958 C 110.591 270.639,111.103 271.125,111.200 271.038 C 111.298 270.951,110.867 270.393,110.241 269.799 L 109.105 268.719 110.064 269.958 M111.619 271.822 C 111.619 271.891,112.200 272.472,112.910 273.113 L 114.201 274.280 113.034 272.989 C 111.946 271.786,111.619 271.516,111.619 271.822 M115.392 276.068 C 116.246 276.941,117.033 277.656,117.142 277.656 C 117.252 277.656,116.643 276.941,115.789 276.068 C 114.936 275.194,114.149 274.479,114.039 274.479 C 113.930 274.479,114.539 275.194,115.392 276.068 M118.967 279.643 C 119.821 280.516,120.608 281.231,120.717 281.231 C 120.827 281.231,120.218 280.516,119.364 279.643 C 118.511 278.769,117.724 278.054,117.614 278.054 C 117.505 278.054,118.114 278.769,118.967 279.643 M221.053 280.437 C 220.552 280.652,220.478 280.778,220.854 280.778 C 221.182 280.778,221.807 280.625,222.244 280.437 C 222.745 280.222,222.818 280.096,222.443 280.096 C 222.115 280.096,221.490 280.249,221.053 280.437 M204.460 282.313 C 205.165 282.400,206.416 282.402,207.240 282.316 C 208.065 282.230,207.488 282.158,205.958 282.156 C 204.429 282.154,203.755 282.225,204.460 282.313 M97.319 286.991 C 98.060 287.756,98.756 288.381,98.865 288.381 C 98.974 288.381,98.457 287.756,97.716 286.991 C 96.975 286.226,96.279 285.601,96.170 285.601 C 96.061 285.601,96.578 286.226,97.319 286.991 M294.737 289.374 C 293.772 290.357,293.072 291.162,293.181 291.162 C 293.290 291.162,294.169 290.357,295.134 289.374 C 296.099 288.391,296.799 287.587,296.690 287.587 C 296.581 287.587,295.702 288.391,294.737 289.374 M103.476 293.545 C 105.433 295.511,107.123 297.120,107.233 297.120 C 107.342 297.120,105.830 295.511,103.873 293.545 C 101.916 291.579,100.225 289.970,100.116 289.970 C 100.007 289.970,101.519 291.579,103.476 293.545 M254.117 291.708 C 252.209 292.881,251.677 293.435,253.227 292.633 C 254.473 291.989,256.152 290.790,255.809 290.790 C 255.700 290.790,254.939 291.203,254.117 291.708 M289.761 294.439 L 286.991 297.319 289.871 294.549 C 292.546 291.976,292.932 291.559,292.641 291.559 C 292.580 291.559,291.284 292.855,289.761 294.439 M108.441 298.039 C 108.441 298.107,109.022 298.688,109.732 299.330 L 111.023 300.497 109.856 299.206 C 108.769 298.002,108.441 297.732,108.441 298.039 M284.583 299.206 L 283.416 300.497 284.707 299.330 C 285.417 298.688,285.998 298.107,285.998 298.039 C 285.998 297.732,285.670 298.002,284.583 299.206 M164.647 305.462 C 165.084 305.650,165.710 305.803,166.038 305.803 C 166.413 305.803,166.340 305.677,165.839 305.462 C 165.402 305.274,164.777 305.120,164.449 305.120 C 164.073 305.120,164.147 305.247,164.647 305.462 M216.882 306.653 C 216.084 306.909,216.045 306.974,216.683 306.983 C 217.120 306.990,217.835 306.841,218.272 306.653 C 219.284 306.218,218.240 306.218,216.882 306.653 M210.725 307.864 C 210.171 308.114,210.412 308.150,211.519 307.982 C 212.393 307.849,213.183 307.674,213.274 307.594 C 213.615 307.293,211.487 307.518,210.725 307.864 M182.826 308.925 C 183.430 309.016,184.323 309.013,184.812 308.919 C 185.300 308.825,184.806 308.750,183.714 308.753 C 182.622 308.756,182.222 308.833,182.826 308.925 M203.084 308.925 C 203.688 309.016,204.581 309.013,205.070 308.919 C 205.559 308.825,205.065 308.750,203.972 308.753 C 202.880 308.756,202.480 308.833,203.084 308.925 M190.169 309.333 C 192.190 309.405,195.497 309.405,197.517 309.333 C 199.538 309.261,197.885 309.202,193.843 309.202 C 189.801 309.202,188.148 309.261,190.169 309.333 M160.079 326.893 C 160.407 327.115,161.018 327.299,161.437 327.303 C 162.453 327.311,162.136 327.084,160.675 326.757 C 159.805 326.562,159.644 326.599,160.079 326.893 M177.065 330.370 C 177.559 330.465,178.274 330.462,178.654 330.362 C 179.034 330.263,178.630 330.185,177.756 330.190 C 176.882 330.194,176.571 330.275,177.065 330.370 M213.212 330.370 C 213.706 330.465,214.421 330.462,214.801 330.362 C 215.181 330.263,214.777 330.185,213.903 330.190 C 213.029 330.194,212.718 330.275,213.212 330.370 M186.401 331.169 C 187.004 331.260,187.898 331.258,188.387 331.163 C 188.875 331.069,188.381 330.994,187.289 330.997 C 186.197 331.000,185.797 331.078,186.401 331.169 M203.481 331.169 C 204.085 331.260,204.979 331.258,205.467 331.163 C 205.956 331.069,205.462 330.994,204.369 330.997 C 203.277 331.000,202.877 331.078,203.481 331.169 M192.552 331.577 C 194.355 331.650,197.304 331.650,199.106 331.577 C 200.909 331.503,199.434 331.443,195.829 331.443 C 192.224 331.443,190.750 331.503,192.552 331.577 " stroke="none" fill="#9fa0b2" fill-rule="evenodd"></path><path id="path3" d="M195.134 70.592 C 195.735 70.683,196.718 70.683,197.319 70.592 C 197.920 70.501,197.428 70.427,196.226 70.427 C 195.025 70.427,194.533 70.501,195.134 70.592 M184.692 75.500 L 183.317 76.721 184.806 75.652 C 186.123 74.707,186.551 74.280,186.182 74.280 C 186.119 74.280,185.448 74.829,184.692 75.500 M212.115 77.178 C 212.115 77.279,212.956 78.051,213.983 78.893 C 215.011 79.735,215.724 80.216,215.567 79.963 C 215.233 79.423,212.115 76.907,212.115 77.178 M179.146 79.875 L 177.358 81.495 179.245 80.024 C 180.899 78.735,181.390 78.249,181.033 78.253 C 180.978 78.254,180.129 78.983,179.146 79.875 M217.478 81.827 C 218.331 82.701,219.119 83.416,219.228 83.416 C 219.337 83.416,218.728 82.701,217.875 81.827 C 217.022 80.953,216.234 80.238,216.125 80.238 C 216.016 80.238,216.624 80.953,217.478 81.827 M171.975 86.097 L 170.606 87.587 172.095 86.218 C 172.915 85.465,173.585 84.795,173.585 84.728 C 173.585 84.425,173.249 84.711,171.975 86.097 M164.045 93.644 L 159.484 98.312 164.151 93.750 C 166.718 91.241,168.818 89.141,168.818 89.083 C 168.818 88.797,168.282 89.309,164.045 93.644 M228.004 92.354 C 229.191 93.555,230.251 94.538,230.360 94.538 C 230.469 94.538,229.588 93.555,228.401 92.354 C 227.215 91.152,226.154 90.169,226.045 90.169 C 225.936 90.169,226.817 91.152,228.004 92.354 M280.948 92.846 C 282.212 92.925,284.178 92.924,285.317 92.844 C 286.456 92.765,285.422 92.700,283.019 92.701 C 280.616 92.702,279.684 92.767,280.948 92.846 M272.095 93.744 C 271.309 93.996,271.268 94.062,271.897 94.062 C 272.334 94.062,273.138 93.919,273.684 93.744 C 274.471 93.492,274.512 93.426,273.883 93.426 C 273.446 93.426,272.642 93.569,272.095 93.744 M291.559 93.744 C 292.917 94.179,293.962 94.179,292.949 93.744 C 292.512 93.556,291.797 93.408,291.360 93.414 C 290.722 93.423,290.761 93.488,291.559 93.744 M267.130 94.935 C 266.629 95.151,266.556 95.277,266.931 95.277 C 267.259 95.277,267.885 95.123,268.322 94.935 C 268.822 94.720,268.896 94.594,268.520 94.594 C 268.193 94.594,267.567 94.748,267.130 94.935 M232.754 97.418 C 233.728 98.456,234.577 99.305,234.641 99.305 C 234.939 99.305,234.624 98.948,232.870 97.302 L 230.983 95.531 232.754 97.418 M181.321 102.582 L 178.153 105.859 181.430 102.691 C 183.232 100.948,184.707 99.473,184.707 99.413 C 184.707 99.124,184.264 99.538,181.321 102.582 M156.107 101.887 C 155.142 102.870,154.442 103.674,154.552 103.674 C 154.661 103.674,155.540 102.870,156.504 101.887 C 157.469 100.904,158.169 100.099,158.060 100.099 C 157.951 100.099,157.072 100.904,156.107 101.887 M242.900 102.483 C 242.399 102.698,242.326 102.824,242.701 102.824 C 243.029 102.824,243.654 102.670,244.091 102.483 C 244.592 102.267,244.666 102.141,244.290 102.141 C 243.962 102.141,243.337 102.295,242.900 102.483 M212.711 105.263 C 213.787 106.356,214.757 107.249,214.866 107.249 C 214.975 107.249,214.184 106.356,213.108 105.263 C 212.032 104.171,211.063 103.277,210.953 103.277 C 210.844 103.277,211.635 104.171,212.711 105.263 M213.505 114.633 L 212.314 115.657 213.605 114.802 C 214.315 114.332,214.896 113.871,214.896 113.776 C 214.896 113.479,214.728 113.583,213.505 114.633 M291.758 121.152 C 293.055 122.463,294.206 123.535,294.315 123.535 C 294.424 123.535,293.452 122.463,292.155 121.152 C 290.858 119.841,289.707 118.769,289.598 118.769 C 289.489 118.769,290.461 119.841,291.758 121.152 M80.343 120.245 C 80.947 120.337,81.841 120.334,82.329 120.240 C 82.818 120.146,82.324 120.071,81.231 120.074 C 80.139 120.077,79.739 120.154,80.343 120.245 M91.261 120.241 C 91.753 120.335,92.557 120.335,93.049 120.241 C 93.540 120.146,93.138 120.068,92.155 120.068 C 91.172 120.068,90.770 120.146,91.261 120.241 M100.799 121.036 C 101.293 121.131,102.008 121.127,102.388 121.028 C 102.768 120.928,102.363 120.850,101.490 120.855 C 100.616 120.859,100.305 120.941,100.799 121.036 M107.646 121.946 C 109.005 122.381,110.049 122.381,109.037 121.946 C 108.600 121.759,107.885 121.610,107.448 121.617 C 106.809 121.626,106.848 121.691,107.646 121.946 M135.186 128.137 C 135.053 128.483,134.567 128.929,134.106 129.129 C 133.407 129.432,133.392 129.476,134.014 129.394 C 134.696 129.304,136.288 127.507,135.686 127.507 C 135.544 127.507,135.318 127.791,135.186 128.137 M190.262 133.764 L 185.700 138.431 190.367 133.869 C 194.703 129.632,195.215 129.096,194.929 129.096 C 194.871 129.096,192.770 131.197,190.262 133.764 M299.929 132.870 C 299.929 133.088,300.184 133.714,300.497 134.260 C 300.809 134.806,301.064 135.074,301.064 134.856 C 301.064 134.638,300.809 134.012,300.497 133.466 C 300.184 132.920,299.929 132.651,299.929 132.870 M89.753 142.239 C 89.510 142.694,89.398 143.155,89.505 143.262 C 89.612 143.369,89.814 143.095,89.954 142.653 C 90.152 142.029,90.626 141.816,92.076 141.701 L 93.942 141.553 92.070 141.482 C 90.535 141.423,90.117 141.560,89.753 142.239 M108.640 143.793 C 109.076 143.981,109.702 144.135,110.030 144.135 C 110.405 144.135,110.332 144.009,109.831 143.793 C 109.394 143.606,108.769 143.452,108.441 143.452 C 108.065 143.452,108.139 143.578,108.640 143.793 M208.720 146.276 L 207.150 147.964 208.838 146.394 C 210.408 144.934,210.709 144.588,210.408 144.588 C 210.343 144.588,209.584 145.348,208.720 146.276 M265.398 152.532 C 265.398 152.860,265.552 153.486,265.740 153.923 C 265.955 154.423,266.081 154.497,266.081 154.121 C 266.081 153.793,265.928 153.168,265.740 152.731 C 265.525 152.230,265.398 152.157,265.398 152.532 M201.167 153.823 L 200.000 155.114 201.291 153.948 C 202.001 153.306,202.582 152.725,202.582 152.657 C 202.582 152.350,202.254 152.620,201.167 153.823 M65.392 156.554 C 65.061 158.210,65.382 158.531,65.740 156.902 C 65.891 156.215,65.931 155.570,65.830 155.469 C 65.729 155.368,65.532 155.856,65.392 156.554 M267.793 163.456 C 267.787 163.893,267.935 164.608,268.123 165.045 C 268.558 166.057,268.558 165.013,268.123 163.654 C 267.867 162.856,267.803 162.817,267.793 163.456 M330.984 172.592 C 330.988 173.466,331.070 173.776,331.165 173.282 C 331.260 172.788,331.256 172.073,331.157 171.693 C 331.057 171.314,330.980 171.718,330.984 172.592 M161.438 172.684 C 162.482 173.840,162.550 174.077,162.126 175.067 C 161.690 176.086,161.700 176.110,162.258 175.396 C 163.121 174.291,163.020 173.878,161.569 172.567 L 160.278 171.400 161.438 172.684 M82.317 175.571 C 82.317 176.336,82.398 176.648,82.498 176.266 C 82.598 175.884,82.598 175.258,82.498 174.876 C 82.398 174.494,82.317 174.806,82.317 175.571 M311.123 175.770 C 311.127 176.643,311.209 176.954,311.304 176.460 C 311.399 175.966,311.395 175.251,311.296 174.871 C 311.196 174.491,311.119 174.896,311.123 175.770 M269.804 177.160 C 269.804 177.925,269.886 178.237,269.986 177.855 C 270.086 177.473,270.086 176.847,269.986 176.465 C 269.886 176.082,269.804 176.395,269.804 177.160 M62.482 178.749 C 62.482 179.950,62.557 180.442,62.648 179.841 C 62.739 179.240,62.739 178.257,62.648 177.656 C 62.557 177.056,62.482 177.547,62.482 178.749 M81.941 178.947 C 81.944 180.040,82.021 180.439,82.112 179.836 C 82.204 179.232,82.201 178.338,82.107 177.850 C 82.013 177.361,81.938 177.855,81.941 178.947 M250.348 178.947 C 250.353 179.821,250.434 180.132,250.529 179.638 C 250.624 179.144,250.621 178.429,250.521 178.049 C 250.422 177.669,250.344 178.073,250.348 178.947 M311.512 179.940 C 311.512 180.705,311.594 181.018,311.694 180.636 C 311.794 180.253,311.794 179.628,311.694 179.245 C 311.594 178.863,311.512 179.176,311.512 179.940 M270.217 180.735 C 270.217 181.718,270.295 182.120,270.390 181.629 C 270.484 181.137,270.484 180.333,270.390 179.841 C 270.295 179.350,270.217 179.752,270.217 180.735 M62.135 189.871 C 62.135 194.568,62.192 196.490,62.263 194.141 C 62.333 191.792,62.333 187.949,62.263 185.601 C 62.192 183.252,62.135 185.174,62.135 189.871 M331.845 189.871 C 331.845 194.131,331.903 195.874,331.974 193.744 C 332.046 191.614,332.046 188.128,331.974 185.998 C 331.903 183.868,331.845 185.611,331.845 189.871 M81.587 189.672 C 81.587 192.731,81.650 193.930,81.725 192.336 C 81.801 190.743,81.800 188.240,81.724 186.775 C 81.648 185.310,81.586 186.614,81.587 189.672 M270.599 185.501 C 270.599 186.266,270.680 186.579,270.780 186.197 C 270.880 185.814,270.880 185.189,270.780 184.806 C 270.680 184.424,270.599 184.737,270.599 185.501 M251.207 193.644 C 251.207 197.577,251.267 199.132,251.339 197.100 C 251.411 195.068,251.411 191.851,251.338 189.950 C 251.266 188.050,251.206 189.712,251.207 193.644 M311.956 191.460 C 311.956 193.317,312.024 194.076,312.108 193.148 C 312.192 192.219,312.192 190.700,312.108 189.772 C 312.024 188.843,311.956 189.603,311.956 191.460 M271.063 197.219 C 271.063 200.497,271.125 201.784,271.199 200.081 C 271.274 198.378,271.273 195.697,271.198 194.123 C 271.123 192.549,271.062 193.942,271.063 197.219 M153.554 197.248 C 153.408 197.830,153.365 198.383,153.458 198.476 C 153.552 198.570,153.748 198.170,153.894 197.588 C 154.040 197.006,154.083 196.453,153.990 196.360 C 153.896 196.266,153.700 196.666,153.554 197.248 M62.482 200.993 C 62.482 202.195,62.557 202.686,62.648 202.085 C 62.739 201.485,62.739 200.501,62.648 199.901 C 62.557 199.300,62.482 199.791,62.482 200.993 M81.935 200.596 C 81.935 201.579,82.013 201.981,82.108 201.490 C 82.202 200.998,82.202 200.194,82.108 199.702 C 82.013 199.211,81.935 199.613,81.935 200.596 M82.317 203.774 C 82.317 204.538,82.398 204.851,82.498 204.469 C 82.598 204.086,82.598 203.461,82.498 203.078 C 82.398 202.696,82.317 203.009,82.317 203.774 M311.115 205.760 C 311.115 206.524,311.197 206.837,311.297 206.455 C 311.397 206.072,311.397 205.447,311.297 205.065 C 311.197 204.682,311.115 204.995,311.115 205.760 M330.984 207.150 C 330.988 208.024,331.070 208.335,331.165 207.840 C 331.260 207.346,331.256 206.631,331.157 206.252 C 331.057 205.872,330.980 206.276,330.984 207.150 M250.340 208.143 C 250.340 208.908,250.422 209.220,250.522 208.838 C 250.622 208.456,250.622 207.830,250.522 207.448 C 250.422 207.066,250.340 207.378,250.340 208.143 M151.506 217.478 C 151.507 221.629,151.565 223.273,151.637 221.131 C 151.709 218.990,151.708 215.594,151.636 213.584 C 151.564 211.575,151.506 213.327,151.506 217.478 M310.079 212.165 C 309.940 212.863,309.899 213.507,309.989 213.597 C 310.079 213.687,310.276 213.199,310.427 212.512 C 310.578 211.826,310.618 211.181,310.517 211.080 C 310.416 210.979,310.219 211.467,310.079 212.165 M270.209 213.505 C 270.214 214.379,270.295 214.690,270.390 214.196 C 270.485 213.702,270.482 212.987,270.382 212.607 C 270.283 212.227,270.205 212.632,270.209 213.505 M329.909 214.715 C 329.757 215.728,329.714 216.639,329.813 216.738 C 329.912 216.837,330.118 216.090,330.270 215.076 C 330.422 214.063,330.465 213.153,330.366 213.053 C 330.266 212.954,330.061 213.702,329.909 214.715 M170.897 214.499 C 170.897 215.263,170.978 215.576,171.078 215.194 C 171.178 214.811,171.178 214.186,171.078 213.803 C 170.978 213.421,170.897 213.734,170.897 214.499 M170.552 222.642 C 170.553 224.826,170.620 225.669,170.700 224.515 C 170.781 223.361,170.780 221.573,170.699 220.543 C 170.617 219.512,170.551 220.457,170.552 222.642 M328.699 221.648 C 328.548 222.335,328.508 222.980,328.609 223.081 C 328.710 223.182,328.907 222.694,329.047 221.996 C 329.186 221.298,329.227 220.654,329.137 220.564 C 329.047 220.474,328.850 220.962,328.699 221.648 M65.386 222.244 C 65.713 223.705,65.940 224.022,65.932 223.006 C 65.929 222.587,65.745 221.976,65.523 221.648 C 65.229 221.213,65.192 221.374,65.386 222.244 M327.557 226.862 C 327.418 227.560,327.377 228.204,327.467 228.294 C 327.557 228.384,327.754 227.896,327.905 227.210 C 328.055 226.523,328.096 225.878,327.995 225.777 C 327.894 225.676,327.697 226.164,327.557 226.862 M170.905 230.586 C 170.909 231.460,170.990 231.771,171.085 231.276 C 171.180 230.782,171.177 230.067,171.077 229.688 C 170.978 229.308,170.900 229.712,170.905 230.586 M152.222 230.586 C 152.226 231.023,152.366 231.917,152.532 232.572 C 152.805 233.642,152.836 233.663,152.843 232.771 C 152.847 232.224,152.707 231.331,152.532 230.785 C 152.283 230.006,152.216 229.963,152.222 230.586 M153.383 236.743 C 153.383 237.071,153.536 237.696,153.724 238.133 C 153.939 238.634,154.065 238.707,154.065 238.332 C 154.065 238.004,153.912 237.378,153.724 236.941 C 153.509 236.441,153.383 236.367,153.383 236.743 M301.157 240.136 C 300.491 241.597,300.618 241.908,301.338 240.581 C 301.674 239.960,301.875 239.379,301.784 239.288 C 301.693 239.197,301.411 239.579,301.157 240.136 M231.976 249.561 C 229.682 251.786,228.520 253.043,229.394 252.355 C 230.986 251.100,236.689 245.467,236.335 245.498 C 236.232 245.508,234.270 247.336,231.976 249.561 M209.831 260.055 C 210.214 260.155,210.839 260.155,211.221 260.055 C 211.604 259.955,211.291 259.874,210.526 259.874 C 209.762 259.874,209.449 259.955,209.831 260.055 M252.011 262.264 L 250.844 263.555 252.135 262.388 C 252.845 261.747,253.426 261.166,253.426 261.097 C 253.426 260.791,253.098 261.061,252.011 262.264 M249.230 265.045 L 248.064 266.336 249.355 265.169 C 250.558 264.081,250.828 263.754,250.521 263.754 C 250.453 263.754,249.872 264.335,249.230 265.045 M168.620 266.137 C 169.473 267.011,170.261 267.726,170.370 267.726 C 170.479 267.726,169.870 267.011,169.017 266.137 C 168.164 265.263,167.376 264.548,167.267 264.548 C 167.158 264.548,167.766 265.263,168.620 266.137 M170.804 268.247 C 170.804 268.316,171.385 268.897,172.095 269.538 L 173.386 270.705 172.220 269.414 C 171.132 268.211,170.804 267.941,170.804 268.247 M281.018 270.209 L 279.047 272.294 281.132 270.323 C 283.070 268.491,283.400 268.123,283.103 268.123 C 283.040 268.123,282.102 269.062,281.018 270.209 M173.728 270.813 C 174.042 271.322,176.365 273.041,176.365 272.765 C 176.365 272.667,175.709 272.086,174.907 271.475 C 174.105 270.863,173.574 270.565,173.728 270.813 M116.981 278.054 C 118.719 279.801,120.230 281.231,120.339 281.231 C 120.448 281.231,119.116 279.801,117.378 278.054 C 115.641 276.306,114.130 274.876,114.021 274.876 C 113.911 274.876,115.244 276.306,116.981 278.054 M273.684 277.458 C 272.719 278.441,272.019 279.245,272.129 279.245 C 272.238 279.245,273.117 278.441,274.081 277.458 C 275.046 276.475,275.746 275.670,275.637 275.670 C 275.528 275.670,274.649 276.475,273.684 277.458 M197.915 281.505 C 198.297 281.605,198.923 281.605,199.305 281.505 C 199.687 281.405,199.374 281.324,198.610 281.324 C 197.845 281.324,197.532 281.405,197.915 281.505 M201.098 281.914 C 201.702 282.005,202.595 282.002,203.084 281.908 C 203.572 281.814,203.078 281.739,201.986 281.742 C 200.894 281.745,200.494 281.822,201.098 281.914 M209.439 281.914 C 210.043 282.005,210.937 282.002,211.426 281.908 C 211.914 281.814,211.420 281.739,210.328 281.742 C 209.235 281.745,208.836 281.822,209.439 281.914 M298.290 285.104 L 296.922 286.594 298.411 285.225 C 299.798 283.951,300.083 283.615,299.780 283.615 C 299.714 283.615,299.043 284.285,298.290 285.104 M97.716 286.991 C 98.457 287.756,99.153 288.381,99.262 288.381 C 99.371 288.381,98.854 287.756,98.113 286.991 C 97.372 286.226,96.676 285.601,96.567 285.601 C 96.458 285.601,96.975 286.226,97.716 286.991 M261.966 287.026 L 260.775 288.050 262.066 287.195 C 262.776 286.726,263.357 286.264,263.357 286.170 C 263.357 285.872,263.188 285.976,261.966 287.026 M100.894 290.477 C 100.894 290.537,102.279 291.922,103.972 293.555 L 107.051 296.524 104.081 293.446 C 101.324 290.587,100.894 290.186,100.894 290.477 M287.363 296.425 L 286.197 297.716 287.488 296.549 C 288.691 295.462,288.961 295.134,288.654 295.134 C 288.586 295.134,288.005 295.715,287.363 296.425 M109.633 298.908 C 110.374 299.672,111.069 300.298,111.179 300.298 C 111.288 300.298,110.771 299.672,110.030 298.908 C 109.289 298.143,108.593 297.517,108.484 297.517 C 108.374 297.517,108.891 298.143,109.633 298.908 M284.186 299.206 L 283.019 300.497 284.310 299.330 C 285.020 298.688,285.601 298.107,285.601 298.039 C 285.601 297.732,285.273 298.002,284.186 299.206 M214.697 307.448 C 213.616 307.723,213.597 307.753,214.499 307.770 C 215.045 307.781,215.849 307.636,216.286 307.448 C 217.265 307.027,216.351 307.027,214.697 307.448 M184.012 309.311 C 184.394 309.410,185.020 309.410,185.402 309.311 C 185.785 309.211,185.472 309.129,184.707 309.129 C 183.942 309.129,183.630 309.211,184.012 309.311 M201.693 309.318 C 202.187 309.413,202.902 309.409,203.282 309.310 C 203.661 309.210,203.257 309.133,202.383 309.137 C 201.509 309.141,201.199 309.223,201.693 309.318 M124.131 310.037 C 124.568 310.393,125.283 310.859,125.720 311.074 L 126.514 311.464 125.720 310.817 C 125.283 310.461,124.568 309.995,124.131 309.780 L 123.337 309.390 124.131 310.037 M191.360 309.728 C 192.726 309.806,194.960 309.806,196.326 309.728 C 197.691 309.650,196.574 309.587,193.843 309.587 C 191.112 309.587,189.995 309.650,191.360 309.728 M162.099 327.054 C 162.190 327.133,162.800 327.317,163.456 327.464 C 164.326 327.658,164.487 327.621,164.052 327.327 C 163.515 326.964,161.700 326.711,162.099 327.054 M168.024 328.500 C 169.382 328.935,170.426 328.935,169.414 328.500 C 168.977 328.313,168.262 328.164,167.825 328.171 C 167.187 328.180,167.226 328.245,168.024 328.500 M180.437 330.363 C 180.819 330.463,181.445 330.463,181.827 330.363 C 182.210 330.263,181.897 330.182,181.132 330.182 C 180.367 330.182,180.055 330.263,180.437 330.363 M183.615 330.771 C 184.215 330.862,185.199 330.862,185.799 330.771 C 186.400 330.680,185.909 330.606,184.707 330.606 C 183.505 330.606,183.014 330.680,183.615 330.771 M205.859 330.771 C 206.460 330.862,207.443 330.862,208.044 330.771 C 208.644 330.680,208.153 330.606,206.951 330.606 C 205.750 330.606,205.258 330.680,205.859 330.771 M192.968 331.180 C 194.781 331.253,197.641 331.253,199.324 331.179 C 201.007 331.104,199.523 331.044,196.028 331.045 C 192.532 331.045,191.155 331.106,192.968 331.180 " stroke="none" fill="#7c7c96" fill-rule="evenodd"></path><path id="path4" d="M195.531 94.415 C 195.914 94.515,196.539 94.515,196.922 94.415 C 197.304 94.315,196.991 94.233,196.226 94.233 C 195.462 94.233,195.149 94.315,195.531 94.415 M303.277 100.099 C 304.130 100.973,304.918 101.688,305.027 101.688 C 305.136 101.688,304.528 100.973,303.674 100.099 C 302.821 99.225,302.033 98.510,301.924 98.510 C 301.815 98.510,302.424 99.225,303.277 100.099 M204.754 150.248 L 202.383 152.731 204.866 150.360 C 206.231 149.056,207.349 147.939,207.349 147.877 C 207.349 147.584,206.957 147.942,204.754 150.248 M332.199 190.070 C 332.201 191.380,332.275 191.869,332.363 191.155 C 332.452 190.441,332.450 189.368,332.359 188.771 C 332.269 188.175,332.196 188.759,332.199 190.070 " stroke="none" fill="#82859c" fill-rule="evenodd"></path></g></svg>